<?xml version="1.0" encoding="UTF-8" standalone="no"?>
<svg width="36px" height="36px" viewBox="0 0 36 36" version="1.1" xmlns="http://www.w3.org/2000/svg" xmlns:xlink="http://www.w3.org/1999/xlink">
    <!-- Generator: Sketch 41.2 (35397) - http://www.bohemiancoding.com/sketch -->
    <title>刷新</title>
    <desc>Created with Sketch.</desc>
    <defs></defs>
    <g id="v1.0-输出版本" stroke="none" stroke-width="1" fill="none" fill-rule="evenodd">
        <g id="刷新" fill="#297FCA">
            <path d="M13.625657,22.1200913 C11.418307,19.7474067 11.4576407,16.0283787 13.7499913,13.7193613 C14.6883316,12.7746876 15.8610072,12.2106833 17.0813497,12.0253486 L17.0130158,10 C15.3016696,10.2083349 13.6453238,10.971674 12.3333139,12.2926839 C9.26095744,15.3870406 9.22462383,20.3804115 12.2129797,23.5427687 L10.5149669,25.2527816 L15.8903407,25.5464504 L15.8753406,19.8550742 L13.625657,22.1200913 L13.625657,22.1200913 Z M20.1093725,10.4536701 L20.1243726,16.1453796 L22.3743895,13.8793626 C24.5810728,16.2523804 24.5424059,19.9714084 22.2500553,22.2800925 C21.3120482,23.2250996 20.138706,23.7884372 18.9186969,23.9737719 L18.9866974,25.9994539 C20.6987103,25.7917856 22.3547227,25.0284465 23.6670659,23.7067699 C26.7390891,20.6124133 26.7754227,15.618709 23.7864002,12.4566852 L25.4847463,10.7466723 L20.1093725,10.4536701 L20.1093725,10.4536701 Z" id="Shape"></path>
        </g>
    </g>
</svg>