<?xml version="1.0" encoding="UTF-8" standalone="no"?>
<svg width="36px" height="36px" viewBox="0 0 36 36" version="1.1" xmlns="http://www.w3.org/2000/svg" xmlns:xlink="http://www.w3.org/1999/xlink">
    <!-- Generator: Sketch 41.2 (35397) - http://www.bohemiancoding.com/sketch -->
    <title>断开已连接的其它设备</title>
    <desc>Created with Sketch.</desc>
    <defs></defs>
    <g id="v1.0-输出版本" stroke="none" stroke-width="1" fill="none" fill-rule="evenodd">
        <g id="断开已连接的其它设备" fill="#297FCA">
            <path d="M26.799402,19.9976171 L20.9903831,22.0535484 C20.846432,22.1046259 20.7015372,22.102461 20.5565502,22.1137299 L19.6813269,19.6924359 L20.1708108,19.5188121 C20.3215281,19.9858312 20.8153747,20.2324292 21.2737481,20.0704431 L25.4226815,18.6016375 C25.8810339,18.4396128 26.1297171,17.9300506 25.9789993,17.4630312 L24.8856387,14.0839186 C24.7345826,13.6174131 24.2407361,13.370815 23.7823682,13.532829 L19.6337625,15.0010653 C19.1754376,15.1630847 18.926421,15.6731885 19.0774452,16.1396719 L18.4742794,16.3529025 L17.6243268,14.0001815 C17.8013829,13.8298505 18.0131117,13.6917222 18.2573653,13.6045614 L24.065215,11.549294 C24.9819079,11.2252606 25.9696818,11.7185124 26.2717238,12.6515232 L27.9117093,17.7209011 C28.2138111,18.653929 27.7156088,19.6732484 26.799402,19.9976171 L26.799402,19.9976171 Z M18.3167594,9.15463375 L19.0429503,9.52615437 L17.4327404,12.061651 L16.70655,11.6901308 L18.3167594,9.15463375 L18.3167594,9.15463375 Z M14.9871415,20.3927811 C14.6843304,20.0148012 14.7379926,19.4586715 15.1066653,19.1506107 L16.2330387,18.2089404 L17.3753083,19.5379332 L16.2034256,20.5173927 C15.8349048,20.8263295 15.2903017,20.7702305 14.9871415,20.3927811 L14.9871415,20.3927811 Z M21.2831455,17.2420908 C21.4341856,17.7085854 21.1851527,18.2186777 20.7268436,18.3807082 L19.3799306,18.8576058 L18.7762427,17.1881236 L20.1807263,16.6908171 C20.6385276,16.5284124 21.1329407,16.7754011 21.2831455,17.2420908 L21.2831455,17.2420908 Z M15.2261458,17.908507 C14.9234935,17.5313597 14.3789115,17.4752993 14.0098835,17.7838622 L10.6713461,20.5753029 C10.3023506,20.8838882 10.2490381,21.4394878 10.5521715,21.8169428 L12.7456428,24.5504727 C13.0481145,24.9289658 13.5930518,24.984524 13.9612275,24.6761446 L17.3006008,21.8845091 C17.6692899,21.5764597 17.7226024,21.0208601 17.4197968,20.6429081 L17.4197968,20.6429081 L17.9467199,20.2019215 L19.538119,22.0526544 C19.4318805,22.292841 19.2778303,22.5151672 19.0645709,22.6935997 L14.3901214,26.6016837 C13.6532832,27.218179 12.5634201,27.1070462 11.9582901,26.3514501 L8.66822894,22.2497371 C8.06242137,21.495168 7.66135666,21.1524189 8.39866465,20.5363199 L13.581022,15.8583455 C13.7121218,15.7487784 13.8634042,15.6899826 14.0118553,15.6254742 L15.6618848,17.5444549 L15.2261458,17.908507 L15.2261458,17.908507 Z M10.0966331,14.4251051 L13.6939771,13.7155404 L13.8605008,14.582112 L10.2622994,15.2918327 L10.0966331,14.4251051 L10.0966331,14.4251051 Z M13.775252,9.47089486 L14.516036,9 L15.0042913,12.2264078 L14.2630103,12.6969841 L13.775252,9.47089486 L13.775252,9.47089486 Z" id="Shape"></path>
        </g>
    </g>
</svg>