<?xml version="1.0" encoding="UTF-8" standalone="no"?>
<svg width="31px" height="20px" viewBox="0 0 31 20" version="1.1" xmlns="http://www.w3.org/2000/svg" xmlns:xlink="http://www.w3.org/1999/xlink">
    <!-- Generator: Sketch 39.1 (31720) - http://www.bohemiancoding.com/sketch -->
    <title>node-threshold-icon</title>
    <desc>Created with Sketch.</desc>
    <defs></defs>
    <g id="Page-1" stroke="none" stroke-width="1" fill="none" fill-rule="evenodd">
        <g id="Desktop-HD" transform="translate(-382.000000, -54.000000)" fill="#FFFFFF">
            <g id="node-threshold-icon" transform="translate(380.000000, 54.000000)">
                <g id="Page-1" transform="translate(10.016667, 8.287416) scale(-1, 1) translate(-10.016667, -8.287416) translate(1.766667, 0.954083)">
                    <path d="M2.33529,8.37544074 C0.953756667,8.37544074 0.953756667,7.69033426 0.953756667,7.46513981 C0.953756667,7.23994537 0.953756667,6.55483889 2.33529,6.55483889 C3.71682333,6.55483889 3.71682333,7.23994537 3.71682333,7.46513981 C3.71682333,7.69033426 3.71682333,8.37544074 2.33529,8.37544074 M4.63709,7.46513981 C4.63709,6.32516296 3.77632333,5.64453796 2.33529,5.64453796 C0.893123333,5.64453796 0.03349,6.32516296 0.03349,7.46513981 C0.03349,8.93898704 1.25862333,9.52101944 3.74402333,9.28574167 C4.02339,9.25941296 4.26195667,9.20955648 4.61725667,9.17202407 C4.71755667,8.74628333 4.82862333,8.28413056 4.94422333,7.8096537 C4.61612333,7.843825 4.63709,7.61695 4.63709,7.46513981" id="Fill-1"></path>
                    <path d="M9.14084333,6.44375417 C8.82011,7.34285139 8.48237667,7.85878194 8.20527667,8.25819398 C8.07834333,8.44137454 7.96161,8.61503194 7.84997667,8.82118009 C9.93134333,8.57301806 11.47721,8.37527269 11.47721,8.37527269 C13.8611767,7.93160602 14.70041,5.64436991 14.70041,5.64436991 C14.70041,5.64436991 9.16464333,6.43983287 9.14084333,6.44375417" id="Fill-3"></path>
                    <path d="M7.54596,12.2146699 C7.38332667,13.5703181 6.69539333,13.4890912 6.46929333,13.4633227 C6.24262667,13.436994 5.55412667,13.3557671 5.71732667,11.9995588 C5.87996,10.6439106 6.56789333,10.7251375 6.79456,10.7514662 C7.02009333,10.7777949 7.70859333,10.8584616 7.54596,12.2146699 M6.18142667,7.93149398 C6.43302667,7.93149398 6.63702667,8.13372083 6.63702667,8.38188287 C6.63702667,8.63060509 6.43302667,8.83283194 6.18142667,8.83283194 C5.92982667,8.83283194 5.72526,8.63060509 5.72526,8.38188287 C5.72526,8.13372083 5.92982667,7.93149398 6.18142667,7.93149398 M6.90279333,9.84676713 C6.73902667,9.82772083 6.47609333,9.72464676 6.60302667,9.35156343 C7.09546,7.89340139 7.80946,8.00431806 8.44469333,5.92995231 L9.91802667,0.182452315 C9.91802667,0.182452315 7.52046,0.737035648 6.79456,3.02483194 C6.79456,3.02483194 5.45949333,8.27320694 4.96876,10.508906 C4.43949333,12.9216236 4.87922667,14.193244 6.35992667,14.3669014 C7.50572667,14.5013458 8.29056,13.7366931 8.46056,12.3216653 C8.63056,10.9060773 8.04802667,9.98177176 6.90279333,9.84676713" id="Fill-5"></path>
                </g>
                <path d="M9.10921237,6.76629273 C9.16284333,6.57422083 9.22929274,6.35923646 9.30908706,6.12723124 C9.53702237,5.46450009 9.82482131,4.80217347 10.1751874,4.18794658 C11.1399994,2.49653462 12.3677074,1.51426794 13.8821765,1.51426794 C15.2577708,1.51426794 15.9037698,2.12500339 17.0725763,4.10449647 C17.099312,4.14978248 17.099312,4.14978248 17.1261395,4.19521937 C18.5156716,6.54818311 19.466554,7.43168875 21.4941849,7.43168875 C23.5626768,7.43168875 24.9970296,6.45164182 25.8590192,4.85438776 C26.1539131,4.30795373 26.3598981,3.7275387 26.4942427,3.14773687 C26.5752878,2.79796409 26.615023,2.52148533 26.628132,2.35282984 L25.4981296,2.26699597 C25.4890788,2.3834399 25.4571092,2.60588511 25.3895198,2.89758603 C25.2761403,3.386907 25.1027016,3.87561478 24.8590872,4.32702871 C24.1824817,5.58076881 23.113282,6.31131838 21.4941849,6.31131838 C20.0017522,6.31131838 19.3067925,5.66560153 18.104894,3.63036695 C18.0781667,3.58509969 18.0781667,3.58509969 18.0513678,3.53970682 C16.69309,1.23932473 15.7988483,0.393897574 13.8821765,0.393897574 C11.8786054,0.393897574 10.3328056,1.63066362 9.18799028,3.63763952 C8.79998685,4.31784837 8.48514198,5.0424172 8.23607776,5.7665815 C8.14892225,6.01998968 8.07605235,6.25574634 8.01673435,6.46818561 C7.98050943,6.59792016 7.95648729,6.69274213 7.9439821,6.74694966 L9.04894622,6.99605701 C9.05777065,6.95780484 9.07766791,6.87926488 9.10921237,6.76629273 Z" id="Path-2"></path>
                <path d="M8.06666667,8.40277778 L9.2,8.40277778 L9.2,7.28240741 L8.06666667,7.28240741 L8.06666667,8.40277778 Z M8.06666667,10.6435185 L9.2,10.6435185 L9.2,9.52314815 L8.06666667,9.52314815 L8.06666667,10.6435185 Z M8.06666667,12.8842593 L9.2,12.8842593 L9.2,11.7638889 L8.06666667,11.7638889 L8.06666667,12.8842593 Z M8.06666667,15.125 L9.2,15.125 L9.2,14.0046296 L8.06666667,14.0046296 L8.06666667,15.125 Z M8.06666667,17.3657407 L9.2,17.3657407 L9.2,16.2453704 L8.06666667,16.2453704 L8.06666667,17.3657407 Z M8.06666667,19.5682394 L9.2,19.5682394 L9.2,18.4861111 L8.06666667,18.4861111 L8.06666667,19.5682394 Z" id="Path-3"></path>
                <path d="M25.6333333,3.6412037 L26.7666667,3.6412037 L26.7666667,2.52083333 L25.6333333,2.52083333 L25.6333333,3.6412037 Z M25.6333333,5.88194444 L26.7666667,5.88194444 L26.7666667,4.76157407 L25.6333333,4.76157407 L25.6333333,5.88194444 Z M25.6333333,8.12268519 L26.7666667,8.12268519 L26.7666667,7.00231481 L25.6333333,7.00231481 L25.6333333,8.12268519 Z M25.6333333,10.3634259 L26.7666667,10.3634259 L26.7666667,9.24305556 L25.6333333,9.24305556 L25.6333333,10.3634259 Z M25.6333333,12.6041667 L26.7666667,12.6041667 L26.7666667,11.4837963 L25.6333333,11.4837963 L25.6333333,12.6041667 Z M25.6333333,14.8449074 L26.7666667,14.8449074 L26.7666667,13.724537 L25.6333333,13.724537 L25.6333333,14.8449074 Z M25.6333333,17.0856481 L26.7666667,17.0856481 L26.7666667,15.9652778 L25.6333333,15.9652778 L25.6333333,17.0856481 Z M25.6333333,19.3263889 L26.7666667,19.3263889 L26.7666667,18.2060185 L25.6333333,18.2060185 L25.6333333,19.3263889 Z" id="Path-3-Copy"></path>
                <polygon id="Line" points="2.68333333 18.4861111 2.11666667 18.4861111 2.11666667 19.6064815 2.68333333 19.6064815 8.35 19.6064815 8.91666667 19.6064815 8.91666667 18.4861111 8.35 18.4861111"></polygon>
                <polygon id="Line-Copy-8" points="26.4833333 18.4861111 25.9166667 18.4861111 25.9166667 19.6064815 26.4833333 19.6064815 32.15 19.6064815 32.7166667 19.6064815 32.7166667 18.4861111 32.15 18.4861111"></polygon>
            </g>
        </g>
    </g>
</svg>