<?xml version="1.0" encoding="UTF-8" standalone="no"?>
<svg width="32px" height="32px" viewBox="0 0 32 32" version="1.1" xmlns="http://www.w3.org/2000/svg" xmlns:xlink="http://www.w3.org/1999/xlink">
    <!-- Generator: Sketch 41.2 (35397) - http://www.bohemiancoding.com/sketch -->
    <title>bg_格子</title>
    <desc>Created with Sketch.</desc>
    <defs></defs>
    <g id="页面样式" stroke="none" stroke-width="1" fill="none" fill-rule="evenodd">
        <g id="bg_格子">
            <rect id="Rectangle-29" fill="#EBEBEB" x="0" y="0" width="32" height="32"></rect>
            <rect id="Rectangle-29" fill="#DFDFDF" x="6" y="0" width="5" height="1"></rect>
            <rect id="Rectangle-29" fill="#DFDFDF" transform="translate(0.500000, 8.500000) rotate(90.000000) translate(-0.500000, -8.500000) " x="-2" y="8" width="5" height="1"></rect>
            <rect id="Rectangle-29" fill="#DFDFDF" transform="translate(0.500000, 16.500000) rotate(90.000000) translate(-0.500000, -16.500000) " x="-2" y="16" width="5" height="1"></rect>
            <rect id="Rectangle-29" fill="#DFDFDF" transform="translate(0.500000, 24.500000) rotate(90.000000) translate(-0.500000, -24.500000) " x="-2" y="24" width="5" height="1"></rect>
            <rect id="Rectangle-29" fill="#DFDFDF" x="0" y="0" width="2" height="2"></rect>
            <rect id="Rectangle-29" fill="#DFDFDF" x="0" y="31" width="2" height="1"></rect>
            <rect id="Rectangle-29" fill="#DFDFDF" x="31" y="0" width="1" height="2"></rect>
            <rect id="Rectangle-29" fill="#DFDFDF" x="31" y="31" width="1" height="1"></rect>
            <rect id="Rectangle-29" fill="#DFDFDF" x="14" y="0" width="5" height="1"></rect>
            <rect id="Rectangle-29" fill="#DFDFDF" x="22" y="0" width="5" height="1"></rect>
        </g>
    </g>
</svg>