<?xml version="1.0" encoding="UTF-8" standalone="no"?>
<svg width="37px" height="12px" viewBox="0 0 37 12" version="1.1" xmlns="http://www.w3.org/2000/svg" xmlns:xlink="http://www.w3.org/1999/xlink">
    <!-- Generator: Sketch 39.1 (31720) - http://www.bohemiancoding.com/sketch -->
    <title>node-function-acos-icon</title>
    <desc>Created with Sketch.</desc>
    <defs></defs>
    <g id="Page-1" stroke="none" stroke-width="1" fill="none" fill-rule="evenodd">
        <g id="Desktop-HD" transform="translate(-527.000000, -394.000000)" fill="#FFFFFF">
            <g id="node-function-acos-icon" transform="translate(527.000000, 394.000000)">
                <path d="M3.762,9.55092593 C3.62999934,9.55092593 3.53025034,9.53292611 3.46275,9.49692593 C3.39524966,9.46092575 3.33900023,9.3859265 3.294,9.27192593 L3.195,9.01542593 C3.07799942,9.11442642 2.96550054,9.20142555 2.8575,9.27642593 C2.74949946,9.3514263 2.63775058,9.41517566 2.52225,9.46767593 C2.40674942,9.52017619 2.28375065,9.5591758 2.15325,9.58467593 C2.02274935,9.61017605 1.8780008,9.62292593 1.719,9.62292593 C1.50599894,9.62292593 1.31250087,9.5951762 1.1385,9.53967593 C0.96449913,9.48417565 0.816750608,9.40242647 0.69525,9.29442593 C0.573749393,9.18642539 0.48000033,9.05217673 0.414,8.89167593 C0.34799967,8.73117512 0.315,8.54592698 0.315,8.33592593 C0.315,8.1709251 0.35699958,8.0014268 0.441,7.82742593 C0.52500042,7.65342506 0.670498965,7.49517664 0.8775,7.35267593 C1.08450104,7.21017521 1.36349825,7.09092641 1.7145,6.99492593 C2.06550176,6.89892545 2.50799733,6.84492599 3.042,6.83292593 L3.042,6.63492593 C3.042,6.36192456 2.98575056,6.16467653 2.87325,6.04317593 C2.76074944,5.92167532 2.60100104,5.86092593 2.394,5.86092593 C2.22899918,5.86092593 2.09400053,5.87892575 1.989,5.91492593 C1.88399948,5.95092611 1.79025041,5.9914257 1.70775,6.03642593 C1.62524959,6.08142615 1.54500039,6.12192575 1.467,6.15792593 C1.38899961,6.19392611 1.29600054,6.21192593 1.188,6.21192593 C1.09199952,6.21192593 1.01025034,6.18867616 0.94275,6.14217593 C0.875249663,6.09567569 0.822000195,6.03792627 0.783,5.96892593 L0.531,5.53242593 C0.81300141,5.28342468 1.12574828,5.09817653 1.46925,4.97667593 C1.81275172,4.85517532 2.18099804,4.79442593 2.574,4.79442593 C2.85600141,4.79442593 3.11024887,4.84017547 3.33675,4.93167593 C3.56325113,5.02317638 3.75524921,5.15067511 3.91275,5.31417593 C4.07025079,5.47767674 4.19099958,5.6719248 4.275,5.89692593 C4.35900042,6.12192705 4.401,6.36792459 4.401,6.63492593 L4.401,9.55092593 L3.762,9.55092593 Z M2.16,8.70042593 C2.3400009,8.70042593 2.49749933,8.66892624 2.6325,8.60592593 C2.76750068,8.54292561 2.90399931,8.44092663 3.042,8.29992593 L3.042,7.65192593 C2.76299861,7.66392599 2.5335009,7.68792575 2.3535,7.72392593 C2.1734991,7.75992611 2.03100053,7.80492566 1.926,7.85892593 C1.82099948,7.9129262 1.7482502,7.97442558 1.70775,8.04342593 C1.6672498,8.11242627 1.647,8.18742552 1.647,8.26842593 C1.647,8.42742672 1.69049957,8.5391756 1.7775,8.60367593 C1.86450044,8.66817625 1.99199916,8.70042593 2.16,8.70042593 L2.16,8.70042593 Z M5.391,9.55092593 L5.391,4.88442593 L6.219,4.88442593 C6.28800035,4.88442593 6.34574977,4.89042587 6.39225,4.90242593 C6.43875023,4.91442599 6.47774984,4.9331758 6.50925,4.95867593 C6.54075016,4.98417605 6.56474992,5.01792572 6.58125,5.05992593 C6.59775008,5.10192614 6.61199994,5.15292563 6.624,5.21292593 L6.7005,5.64942593 C6.87150086,5.38542461 7.06349894,5.17692669 7.2765,5.02392593 C7.48950107,4.87092516 7.72199874,4.79442593 7.974,4.79442593 C8.18700107,4.79442593 8.35799936,4.84542542 8.487,4.94742593 L8.307,5.97342593 C8.29499994,6.03642624 8.27100018,6.0806758 8.235,6.10617593 C8.19899982,6.13167605 8.1510003,6.14442593 8.091,6.14442593 C8.03999975,6.14442593 7.98000035,6.13767599 7.911,6.12417593 C7.84199966,6.11067586 7.75500053,6.10392593 7.65,6.10392593 C7.28399817,6.10392593 6.99600105,6.29892398 6.786,6.68892593 L6.786,9.55092593 L5.391,9.55092593 Z M12.474,5.99142593 C12.4319998,6.04242618 12.3915002,6.08292578 12.3525,6.11292593 C12.3134998,6.14292608 12.2580004,6.15792593 12.186,6.15792593 C12.1169997,6.15792593 12.0547503,6.14142609 11.99925,6.10842593 C11.9437497,6.07542576 11.8815003,6.03867613 11.8125,5.99817593 C11.7434997,5.95767572 11.6625005,5.92092609 11.5695,5.88792593 C11.4764995,5.85492576 11.3610007,5.83842593 11.223,5.83842593 C11.0519991,5.83842593 10.9042506,5.86992561 10.77975,5.93292593 C10.6552494,5.99592624 10.5525004,6.08592534 10.4715,6.20292593 C10.3904996,6.31992651 10.3305002,6.46317508 10.2915,6.63267593 C10.2524998,6.80217677 10.233,6.99342486 10.233,7.20642593 C10.233,7.65342816 10.3192491,7.99692473 10.49175,8.23692593 C10.6642509,8.47692713 10.9019985,8.59692593 11.205,8.59692593 C11.3670008,8.59692593 11.4952495,8.57667613 11.58975,8.53617593 C11.6842505,8.49567572 11.7644997,8.45067617 11.8305,8.40117593 C11.8965003,8.35167568 11.9572497,8.30592614 12.01275,8.26392593 C12.0682503,8.22192572 12.1379996,8.20092593 12.222,8.20092593 C12.3330006,8.20092593 12.4169997,8.24142552 12.474,8.32242593 L12.879,8.82192593 C12.7349993,8.98692675 12.5835008,9.12117541 12.4245,9.22467593 C12.2654992,9.32817644 12.1027508,9.40917563 11.93625,9.46767593 C11.7697492,9.52617622 11.6025008,9.56667581 11.4345,9.58917593 C11.2664992,9.61167604 11.1030008,9.62292593 10.944,9.62292593 C10.6589986,9.62292593 10.3867513,9.56892647 10.12725,9.46092593 C9.8677487,9.35292539 9.63975098,9.19617695 9.44325,8.99067593 C9.24674902,8.7851749 9.09075058,8.53242743 8.97525,8.23242593 C8.85974942,7.93242443 8.802,7.59042785 8.802,7.20642593 C8.802,6.87042425 8.8522495,6.55617739 8.95275,6.26367593 C9.0532505,5.97117446 9.20174902,5.717677 9.39825,5.50317593 C9.59475098,5.28867485 9.83774855,5.11992654 10.12725,4.99692593 C10.4167514,4.87392531 10.7519981,4.81242593 11.133,4.81242593 C11.4990018,4.81242593 11.8199986,4.87092534 12.096,4.98792593 C12.3720014,5.10492651 12.6209989,5.2759248 12.843,5.50092593 L12.474,5.99142593 Z M16.848,5.99142593 C16.8059998,6.04242618 16.7655002,6.08292578 16.7265,6.11292593 C16.6874998,6.14292608 16.6320004,6.15792593 16.56,6.15792593 C16.4909997,6.15792593 16.4287503,6.14142609 16.37325,6.10842593 C16.3177497,6.07542576 16.2555003,6.03867613 16.1865,5.99817593 C16.1174997,5.95767572 16.0365005,5.92092609 15.9435,5.88792593 C15.8504995,5.85492576 15.7350007,5.83842593 15.597,5.83842593 C15.4259991,5.83842593 15.2782506,5.86992561 15.15375,5.93292593 C15.0292494,5.99592624 14.9265004,6.08592534 14.8455,6.20292593 C14.7644996,6.31992651 14.7045002,6.46317508 14.6655,6.63267593 C14.6264998,6.80217677 14.607,6.99342486 14.607,7.20642593 C14.607,7.65342816 14.6932491,7.99692473 14.86575,8.23692593 C15.0382509,8.47692713 15.2759985,8.59692593 15.579,8.59692593 C15.7410008,8.59692593 15.8692495,8.57667613 15.96375,8.53617593 C16.0582505,8.49567572 16.1384997,8.45067617 16.2045,8.40117593 C16.2705003,8.35167568 16.3312497,8.30592614 16.38675,8.26392593 C16.4422503,8.22192572 16.5119996,8.20092593 16.596,8.20092593 C16.7070006,8.20092593 16.7909997,8.24142552 16.848,8.32242593 L17.253,8.82192593 C17.1089993,8.98692675 16.9575008,9.12117541 16.7985,9.22467593 C16.6394992,9.32817644 16.4767508,9.40917563 16.31025,9.46767593 C16.1437492,9.52617622 15.9765008,9.56667581 15.8085,9.58917593 C15.6404992,9.61167604 15.4770008,9.62292593 15.318,9.62292593 C15.0329986,9.62292593 14.7607513,9.56892647 14.50125,9.46092593 C14.2417487,9.35292539 14.013751,9.19617695 13.81725,8.99067593 C13.620749,8.7851749 13.4647506,8.53242743 13.34925,8.23242593 C13.2337494,7.93242443 13.176,7.59042785 13.176,7.20642593 C13.176,6.87042425 13.2262495,6.55617739 13.32675,6.26367593 C13.4272505,5.97117446 13.575749,5.717677 13.77225,5.50317593 C13.968751,5.28867485 14.2117486,5.11992654 14.50125,4.99692593 C14.7907514,4.87392531 15.1259981,4.81242593 15.507,4.81242593 C15.8730018,4.81242593 16.1939986,4.87092534 16.47,4.98792593 C16.7460014,5.10492651 16.9949989,5.2759248 17.217,5.50092593 L16.848,5.99142593 Z M19.935,4.81242593 C20.2890018,4.81242593 20.6114985,4.86792537 20.9025,4.97892593 C21.1935015,5.08992648 21.443249,5.24892489 21.65175,5.45592593 C21.860251,5.66292696 22.0222494,5.91417445 22.13775,6.20967593 C22.2532506,6.5051774 22.311,6.83742408 22.311,7.20642593 C22.311,7.57842779 22.2532506,7.91367443 22.13775,8.21217593 C22.0222494,8.51067742 21.860251,8.76417488 21.65175,8.97267593 C21.443249,9.18117697 21.1935015,9.34167536 20.9025,9.45417593 C20.6114985,9.56667649 20.2890018,9.62292593 19.935,9.62292593 C19.5779982,9.62292593 19.2532515,9.56667649 18.96075,9.45417593 C18.6682485,9.34167536 18.4162511,9.18117697 18.20475,8.97267593 C17.9932489,8.76417488 17.8297506,8.51067742 17.71425,8.21217593 C17.5987494,7.91367443 17.541,7.57842779 17.541,7.20642593 C17.541,6.83742408 17.5987494,6.5051774 17.71425,6.20967593 C17.8297506,5.91417445 17.9932489,5.66292696 18.20475,5.45592593 C18.4162511,5.24892489 18.6682485,5.08992648 18.96075,4.97892593 C19.2532515,4.86792537 19.5779982,4.81242593 19.935,4.81242593 L19.935,4.81242593 Z M19.935,8.58792593 C20.2560016,8.58792593 20.4922492,8.47467706 20.64375,8.24817593 C20.7952508,8.02167479 20.871,7.67742824 20.871,7.21542593 C20.871,6.75342362 20.7952508,6.40992705 20.64375,6.18492593 C20.4922492,5.9599248 20.2560016,5.84742593 19.935,5.84742593 C19.6049984,5.84742593 19.3635008,5.9599248 19.2105,6.18492593 C19.0574992,6.40992705 18.981,6.75342362 18.981,7.21542593 C18.981,7.67742824 19.0574992,8.02167479 19.2105,8.24817593 C19.3635008,8.47467706 19.6049984,8.58792593 19.935,8.58792593 L19.935,8.58792593 Z M25.929,5.90592593 C25.8929998,5.96292621 25.8547502,6.00342581 25.81425,6.02742593 C25.7737498,6.05142605 25.7220003,6.06342593 25.659,6.06342593 C25.5929997,6.06342593 25.5270003,6.04917607 25.461,6.02067593 C25.3949997,5.99217578 25.3237504,5.96142609 25.24725,5.92842593 C25.1707496,5.89542576 25.0845005,5.86467607 24.9885,5.83617593 C24.8924995,5.80767578 24.7830006,5.79342593 24.66,5.79342593 C24.4829991,5.79342593 24.3472505,5.82717559 24.25275,5.89467593 C24.1582495,5.96217626 24.111,6.05592533 24.111,6.17592593 C24.111,6.26292636 24.1417497,6.33492564 24.20325,6.39192593 C24.2647503,6.44892621 24.3464995,6.49917571 24.4485,6.54267593 C24.5505005,6.58617614 24.6659994,6.62742573 24.795,6.66642593 C24.9240006,6.70542612 25.0559993,6.74892569 25.191,6.79692593 C25.3260007,6.84492617 25.4579994,6.9011756 25.587,6.96567593 C25.7160006,7.03017625 25.8314995,7.10967545 25.9335,7.20417593 C26.0355005,7.2986764 26.1172497,7.41342525 26.17875,7.54842593 C26.2402503,7.6834266 26.271,7.84542498 26.271,8.03442593 C26.271,8.26542708 26.2290004,8.47842495 26.145,8.67342593 C26.0609996,8.8684269 25.9357508,9.03642522 25.76925,9.17742593 C25.6027492,9.31842663 25.3972512,9.42792554 25.15275,9.50592593 C24.9082488,9.58392632 24.6270016,9.62292593 24.309,9.62292593 C24.1499992,9.62292593 23.9910008,9.60792608 23.832,9.57792593 C23.6729992,9.54792578 23.5192507,9.50742618 23.37075,9.45642593 C23.2222493,9.40542567 23.0850006,9.34467628 22.959,9.27417593 C22.8329994,9.20367557 22.7250005,9.12792633 22.635,9.04692593 L22.959,8.53392593 C22.9980002,8.47392563 23.0444997,8.4266761 23.0985,8.39217593 C23.1525003,8.35767575 23.2229996,8.34042593 23.31,8.34042593 C23.3910004,8.34042593 23.4637497,8.35842575 23.52825,8.39442593 C23.5927503,8.43042611 23.6624996,8.46942572 23.7375,8.51142593 C23.8125004,8.55342614 23.9002495,8.59242575 24.00075,8.62842593 C24.1012505,8.66442611 24.2279992,8.68242593 24.381,8.68242593 C24.4890005,8.68242593 24.5804996,8.67117604 24.6555,8.64867593 C24.7305004,8.62617581 24.7904998,8.59542612 24.8355,8.55642593 C24.8805002,8.51742573 24.9134999,8.47392617 24.9345,8.42592593 C24.9555001,8.37792569 24.966,8.32842618 24.966,8.27742593 C24.966,8.18442546 24.9345003,8.10792623 24.8715,8.04792593 C24.8084997,7.98792563 24.7260005,7.93617614 24.624,7.89267593 C24.5219995,7.84917571 24.4057507,7.80867611 24.27525,7.77117593 C24.1447493,7.73367574 24.0120007,7.69092617 23.877,7.64292593 C23.7419993,7.59492569 23.6092507,7.53717626 23.47875,7.46967593 C23.3482493,7.40217559 23.2320005,7.31667644 23.13,7.21317593 C23.0279995,7.10967541 22.9455003,6.98292668 22.8825,6.83292593 C22.8194997,6.68292518 22.788,6.50142699 22.788,6.28842593 C22.788,6.09042494 22.8262496,5.90217682 22.90275,5.72367593 C22.9792504,5.54517503 23.0939992,5.3884266 23.247,5.25342593 C23.4000008,5.11842525 23.5919988,5.01117632 23.823,4.93167593 C24.0540012,4.85217553 24.3239985,4.81242593 24.633,4.81242593 C24.8010008,4.81242593 24.9637492,4.82742578 25.12125,4.85742593 C25.2787508,4.88742608 25.4264993,4.92942566 25.5645,4.98342593 C25.7025007,5.0374262 25.8284994,5.10117556 25.9425,5.17467593 C26.0565006,5.24817629 26.1569996,5.32842549 26.244,5.41542593 L25.929,5.90592593 Z" id="arccos"></path>
                <path d="M30.5,6.12612124 L30.1669922,5.24526186 C29.9235014,4.62221187 29.7910157,4.2856267 29.7695312,4.23549624 L29.2539062,3.08608218 C28.88867,2.26251035 28.5377621,1.85073061 28.2011719,1.85073061 C27.6927058,1.85073061 27.2916681,2.32696283 26.9980469,3.27944155 C26.7832021,3.20066512 26.6757812,3.08608293 26.6757812,2.93569155 C26.6757812,2.49167891 26.9335912,1.98322046 27.4492188,1.41030093 C27.9648463,0.837381395 28.4267558,0.550925926 28.8349609,0.550925926 C29.6370483,0.550925926 30.4677691,1.70390919 31.3271484,4.0099103 L31.5419922,4.57924624 L31.7890625,4.1817853 C33.3144608,1.76120028 34.5999297,0.550925926 35.6455078,0.550925926 C35.9176446,0.550925926 36.2363263,0.62970118 36.6015625,0.787254051 L35.3017578,2.15151186 C35.129882,2.1013814 35.0081384,2.07631655 34.9365234,2.07631655 C34.1487591,2.07631655 33.2106174,2.98223197 32.1220703,4.79408999 L31.8105469,5.30971499 L32.0576172,5.97573061 C33.0029344,8.57535299 33.7799449,9.87514468 34.3886719,9.87514468 C34.9472684,9.87514468 35.3733709,9.47410702 35.6669922,8.67201968 C35.867514,8.80092657 35.9677734,8.93341222 35.9677734,9.06948061 C35.9677734,9.42755532 35.681318,9.85723852 35.1083984,10.3585431 C34.5354789,10.8598477 34.0413432,11.1104962 33.6259766,11.1104962 C32.7952432,11.1104962 31.9466189,9.93960951 31.0800781,7.59780093 L30.7792969,6.80287905 L30.4677734,7.35073061 C29.0068286,9.85725356 27.6103582,11.1104962 26.2783203,11.1104962 C25.7770157,11.1104962 25.3509132,10.985172 25,10.7345197 L26.2460938,9.5099103 C26.4609386,9.72475513 26.7115871,9.83217593 26.9980469,9.83217593 C27.8072957,9.83217593 28.7167918,9.01577784 29.7265625,7.38295718 L30.2851562,6.48061343 L30.5,6.12612124 Z" id="x-copy-8"></path>
            </g>
        </g>
    </g>
</svg>