<?xml version="1.0" encoding="UTF-8" standalone="no"?>
<svg width="29px" height="23px" viewBox="0 0 29 23" version="1.1" xmlns="http://www.w3.org/2000/svg" xmlns:xlink="http://www.w3.org/1999/xlink">
    <!-- Generator: Sketch 39.1 (31720) - http://www.bohemiancoding.com/sketch -->
    <title>node-function-sin-icon</title>
    <desc>Created with Sketch.</desc>
    <defs></defs>
    <g id="Page-1" stroke="none" stroke-width="1" fill="none" fill-rule="evenodd">
        <g id="Desktop-HD" transform="translate(-528.000000, -273.000000)" fill="#FFFFFF">
            <g id="node-function-sin-icon" transform="translate(528.000000, 272.000000)">
                <g id="Group-7" transform="translate(0.000000, 4.000000)">
                    <path d="M2.54761905,9.9375 L3.04761905,9.9375 L3.04761905,8.9375 L2.54761905,8.9375 L1.54761905,8.9375 L1.04761905,8.9375 L1.04761905,9.9375 L1.54761905,9.9375 L2.54761905,9.9375 Z M5.54761905,9.9375 L6.04761905,9.9375 L6.04761905,8.9375 L5.54761905,8.9375 L4.54761905,8.9375 L4.04761905,8.9375 L4.04761905,9.9375 L4.54761905,9.9375 L5.54761905,9.9375 Z M8.54761905,9.9375 L9.04761905,9.9375 L9.04761905,8.9375 L8.54761905,8.9375 L7.54761905,8.9375 L7.04761905,8.9375 L7.04761905,9.9375 L7.54761905,9.9375 L8.54761905,9.9375 Z M11.547619,9.9375 L12.047619,9.9375 L12.047619,8.9375 L11.547619,8.9375 L10.547619,8.9375 L10.047619,8.9375 L10.047619,9.9375 L10.547619,9.9375 L11.547619,9.9375 Z M14.547619,9.9375 L15.047619,9.9375 L15.047619,8.9375 L14.547619,8.9375 L13.547619,8.9375 L13.047619,8.9375 L13.047619,9.9375 L13.547619,9.9375 L14.547619,9.9375 Z M17.547619,9.9375 L18.047619,9.9375 L18.047619,8.9375 L17.547619,8.9375 L16.547619,8.9375 L16.047619,8.9375 L16.047619,9.9375 L16.547619,9.9375 L17.547619,9.9375 Z M20.547619,9.9375 L21.047619,9.9375 L21.047619,8.9375 L20.547619,8.9375 L19.547619,8.9375 L19.047619,8.9375 L19.047619,9.9375 L19.547619,9.9375 L20.547619,9.9375 Z M23.452381,9.9375 L23.952381,9.9375 L23.952381,8.9375 L23.452381,8.9375 L22.547619,8.9375 L22.047619,8.9375 L22.047619,9.9375 L22.547619,9.9375 L23.452381,9.9375 Z" id="Line"></path>
                    <path d="M6.15655139,1.5 C7.97759198,1.5 9.02365138,3.54141898 10.7030709,9.32054715 C10.7895476,9.6183305 10.7895476,9.6183305 10.8762871,9.91691817 C12.8241848,16.616548 14.1166756,19.0546502 16.9880287,19.0546502 C19.8474214,19.0546503 21.1916597,16.6609523 23.3571709,9.96489016 C23.4404557,9.70722377 23.4404557,9.70722377 23.5235562,9.45011511 C23.528495,9.43484298 22.5819644,9.11182957 22.5819644,9.11182957 C22.4888774,9.39981706 22.4888774,9.39981706 22.4056906,9.65718072 C20.4084613,15.8328915 19.1607796,18.0546503 16.9880287,18.0546502 C15.6298109,18.0546502 14.6540037,17.1690052 13.6728741,14.9872637 C13.0897689,13.6906105 12.5047837,11.9361545 11.8365241,9.63773207 C11.7499184,9.33960488 11.7499184,9.33960488 11.6633455,9.04149053 C9.81932531,2.69594718 8.6940829,0.5 6.15655139,0.5 C3.59593151,0.5 2.33391135,2.90113913 0.519988632,9.12218215 L1.48001137,9.40210419 C3.13568026,3.7238097 4.30449743,1.5 6.15655139,1.5 Z" id="Path-4"></path>
                </g>
                <path d="M17.524,5.14 C17.4759998,5.21600038 17.4250003,5.26999984 17.371,5.302 C17.3169997,5.33400016 17.2480004,5.35 17.164,5.35 C17.0759996,5.35 16.9880004,5.33100019 16.9,5.293 C16.8119996,5.25499981 16.7170005,5.21400022 16.615,5.17 C16.5129995,5.12599978 16.3980006,5.08500019 16.27,5.047 C16.1419994,5.00899981 15.9960008,4.99 15.832,4.99 C15.5959988,4.99 15.4150006,5.03499955 15.289,5.125 C15.1629994,5.21500045 15.1,5.3399992 15.1,5.5 C15.1,5.61600058 15.1409996,5.71199962 15.223,5.788 C15.3050004,5.86400038 15.4139993,5.93099971 15.55,5.989 C15.6860007,6.04700029 15.8399991,6.10199974 16.012,6.154 C16.1840009,6.20600026 16.3599991,6.26399968 16.54,6.328 C16.7200009,6.39200032 16.8959991,6.46699957 17.068,6.553 C17.2400009,6.63900043 17.3939993,6.74499937 17.53,6.871 C17.6660007,6.99700063 17.7749996,7.1499991 17.857,7.33 C17.9390004,7.5100009 17.98,7.72599874 17.98,7.978 C17.98,8.28600154 17.9240006,8.5699987 17.812,8.83 C17.6999994,9.0900013 17.5330011,9.31399906 17.311,9.502 C17.0889989,9.69000094 16.8150016,9.83599948 16.489,9.94 C16.1629984,10.0440005 15.7880021,10.096 15.364,10.096 C15.1519989,10.096 14.9400011,10.0760002 14.728,10.036 C14.5159989,9.9959998 14.311001,9.94200034 14.113,9.874 C13.914999,9.80599966 13.7320008,9.72500047 13.564,9.631 C13.3959992,9.53699953 13.2520006,9.43600054 13.132,9.328 L13.564,8.644 C13.6160003,8.5639996 13.6779996,8.50100023 13.75,8.455 C13.8220004,8.40899977 13.9159994,8.386 14.032,8.386 C14.1400005,8.386 14.2369996,8.40999976 14.323,8.458 C14.4090004,8.50600024 14.5019995,8.55799972 14.602,8.614 C14.7020005,8.67000028 14.8189993,8.72199976 14.953,8.77 C15.0870007,8.81800024 15.255999,8.842 15.46,8.842 C15.6040007,8.842 15.7259995,8.82700015 15.826,8.797 C15.9260005,8.76699985 16.0059997,8.72600026 16.066,8.674 C16.1260003,8.62199974 16.1699999,8.56400032 16.198,8.5 C16.2260001,8.43599968 16.24,8.37000034 16.24,8.302 C16.24,8.17799938 16.1980004,8.0760004 16.114,7.996 C16.0299996,7.9159996 15.9200007,7.84700029 15.784,7.789 C15.6479993,7.73099971 15.4930009,7.67700025 15.319,7.627 C15.1449991,7.57699975 14.9680009,7.52000032 14.788,7.456 C14.6079991,7.39199968 14.4310009,7.31500045 14.257,7.225 C14.0829991,7.13499955 13.9280007,7.02100069 13.792,6.883 C13.6559993,6.74499931 13.5460004,6.576001 13.462,6.376 C13.3779996,6.175999 13.336,5.93400142 13.336,5.65 C13.336,5.38599868 13.3869995,5.13500119 13.489,4.897 C13.5910005,4.65899881 13.743999,4.4500009 13.948,4.27 C14.152001,4.0899991 14.4079985,3.94700053 14.716,3.841 C15.0240015,3.73499947 15.3839979,3.682 15.796,3.682 C16.0200011,3.682 16.236999,3.7019998 16.447,3.742 C16.657001,3.7820002 16.8539991,3.83799964 17.038,3.91 C17.2220009,3.98200036 17.3899992,4.06699951 17.542,4.165 C17.6940008,4.26300049 17.8279994,4.36999942 17.944,4.486 L17.524,5.14 Z M20.92,3.778 L20.92,10 L19.06,10 L19.06,3.778 L20.92,3.778 Z M21.136,2.074 C21.136,2.22200074 21.1060003,2.36099935 21.046,2.491 C20.9859997,2.62100065 20.9040005,2.73499951 20.8,2.833 C20.6959995,2.93100049 20.5750007,3.00899971 20.437,3.067 C20.2989993,3.12500029 20.1520008,3.154 19.996,3.154 C19.8439992,3.154 19.7020007,3.12500029 19.57,3.067 C19.4379993,3.00899971 19.3210005,2.93100049 19.219,2.833 C19.1169995,2.73499951 19.0370003,2.62100065 18.979,2.491 C18.9209997,2.36099935 18.892,2.22200074 18.892,2.074 C18.892,1.92199924 18.9209997,1.78000066 18.979,1.648 C19.0370003,1.51599934 19.1169995,1.4000005 19.219,1.3 C19.3210005,1.1999995 19.4379993,1.12200028 19.57,1.066 C19.7020007,1.00999972 19.8439992,0.982 19.996,0.982 C20.1520008,0.982 20.2989993,1.00999972 20.437,1.066 C20.5750007,1.12200028 20.6959995,1.1999995 20.8,1.3 C20.9040005,1.4000005 20.9859997,1.51599934 21.046,1.648 C21.1060003,1.78000066 21.136,1.92199924 21.136,2.074 L21.136,2.074 Z M22.42,10 L22.42,3.778 L23.572,3.778 C23.6880006,3.778 23.7849996,3.80399974 23.863,3.856 C23.9410004,3.90800026 23.9959998,3.98599948 24.028,4.09 L24.136,4.45 C24.2560006,4.33799944 24.3799994,4.23400048 24.508,4.138 C24.6360006,4.04199952 24.7729993,3.96100033 24.919,3.895 C25.0650007,3.82899967 25.2229991,3.77700019 25.393,3.739 C25.5630008,3.70099981 25.747999,3.682 25.948,3.682 C26.2880017,3.682 26.5889987,3.74099941 26.851,3.859 C27.1130013,3.97700059 27.3339991,4.14099895 27.514,4.351 C27.6940009,4.56100105 27.8299995,4.81099855 27.922,5.101 C28.0140005,5.39100145 28.06,5.7059983 28.06,6.046 L28.06,10 L26.2,10 L26.2,6.046 C26.2,5.74199848 26.1300007,5.50500085 25.99,5.335 C25.8499993,5.16499915 25.6440014,5.08 25.372,5.08 C25.167999,5.08 24.9760009,5.12399956 24.796,5.212 C24.6159991,5.30000044 24.4440008,5.41799926 24.28,5.566 L24.28,10 L22.42,10 Z" id="sin"></path>
            </g>
        </g>
    </g>
</svg>