<?xml version="1.0" encoding="UTF-8" standalone="no"?>
<svg width="20px" height="11px" viewBox="0 0 20 11" version="1.1" xmlns="http://www.w3.org/2000/svg" xmlns:xlink="http://www.w3.org/1999/xlink">
    <!-- Generator: Sketch 39.1 (31720) - http://www.bohemiancoding.com/sketch -->
    <title>node-function-negtive-icon</title>
    <desc>Created with Sketch.</desc>
    <defs></defs>
    <g id="Page-1" stroke="none" stroke-width="1" fill="none" fill-rule="evenodd">
        <g id="Desktop-HD" transform="translate(-532.000000, -133.000000)" fill="#FFFFFF">
            <g id="node-function-negtive-icon" transform="translate(532.000000, 133.000000)">
                <path d="M13.5,5.57519531 L13.1669922,4.69433594 C12.9235014,4.07128595 12.7910157,3.73470077 12.7695312,3.68457031 L12.2539062,2.53515625 C11.88867,1.71158442 11.5377621,1.29980469 11.2011719,1.29980469 C10.6927058,1.29980469 10.2916681,1.7760369 9.99804687,2.72851562 C9.78320205,2.64973919 9.67578125,2.535157 9.67578125,2.38476562 C9.67578125,1.94075299 9.93359117,1.43229453 10.4492187,0.859375 C10.9648463,0.286455469 11.4267558,0 11.8349609,0 C12.6370483,0 13.4677691,1.15298326 14.3271484,3.45898438 L14.5419922,4.02832031 L14.7890625,3.63085938 C16.3144608,1.21027436 17.5999297,0 18.6455078,0 C18.9176446,0 19.2363263,0.0787752539 19.6015625,0.236328125 L18.3017578,1.60058594 C18.129882,1.55045548 18.0081384,1.52539063 17.9365234,1.52539063 C17.1487591,1.52539063 16.2106174,2.43130604 15.1220703,4.24316406 L14.8105469,4.75878906 L15.0576172,5.42480469 C16.0029344,8.02442706 16.7799449,9.32421875 17.3886719,9.32421875 C17.9472684,9.32421875 18.3733709,8.92318109 18.6669922,8.12109375 C18.867514,8.25000064 18.9677734,8.3824863 18.9677734,8.51855469 C18.9677734,8.87662939 18.681318,9.3063126 18.1083984,9.80761719 C17.5354789,10.3089218 17.0413432,10.5595703 16.6259766,10.5595703 C15.7952432,10.5595703 14.9466189,9.38868358 14.0800781,7.046875 L13.7792969,6.25195312 L13.4677734,6.79980469 C12.0068286,9.30632764 10.6103582,10.5595703 9.27832031,10.5595703 C8.77701572,10.5595703 8.35091321,10.434246 8,10.1835938 L9.24609375,8.95898438 C9.46093857,9.1738292 9.71158711,9.28125 9.99804687,9.28125 C10.8072957,9.28125 11.7167918,8.46485191 12.7265625,6.83203125 L13.2851562,5.9296875 L13.5,5.57519531 Z" id="x-copy-4"></path>
                <path d="M0,5 L1,4 L1,6 L0,5 L6,5 L5,6 L5,4 L6,5 L0,5 Z M6,4 L6,6 L0,6 L0,4 L6,4 Z" id="Rectangle-8"></path>
            </g>
        </g>
    </g>
</svg>