<?xml version="1.0" encoding="UTF-8" standalone="no"?>
<svg width="36px" height="12px" viewBox="0 0 36 12" version="1.1" xmlns="http://www.w3.org/2000/svg" xmlns:xlink="http://www.w3.org/1999/xlink">
    <!-- Generator: Sketch 39.1 (31720) - http://www.bohemiancoding.com/sketch -->
    <title>node-function-asin-icon</title>
    <desc>Created with Sketch.</desc>
    <defs></defs>
    <g id="Page-1" stroke="none" stroke-width="1" fill="none" fill-rule="evenodd">
        <g id="Desktop-HD" transform="translate(-528.000000, -371.000000)" fill="#FFFFFF">
            <g id="node-function-asin-icon" transform="translate(528.000000, 371.000000)">
                <path d="M3.762,9.55092593 C3.62999934,9.55092593 3.53025034,9.53292611 3.46275,9.49692593 C3.39524966,9.46092575 3.33900023,9.3859265 3.294,9.27192593 L3.195,9.01542593 C3.07799942,9.11442642 2.96550054,9.20142555 2.8575,9.27642593 C2.74949946,9.3514263 2.63775058,9.41517566 2.52225,9.46767593 C2.40674942,9.52017619 2.28375065,9.5591758 2.15325,9.58467593 C2.02274935,9.61017605 1.8780008,9.62292593 1.719,9.62292593 C1.50599894,9.62292593 1.31250087,9.5951762 1.1385,9.53967593 C0.96449913,9.48417565 0.816750608,9.40242647 0.69525,9.29442593 C0.573749393,9.18642539 0.48000033,9.05217673 0.414,8.89167593 C0.34799967,8.73117512 0.315,8.54592698 0.315,8.33592593 C0.315,8.1709251 0.35699958,8.0014268 0.441,7.82742593 C0.52500042,7.65342506 0.670498965,7.49517664 0.8775,7.35267593 C1.08450104,7.21017521 1.36349825,7.09092641 1.7145,6.99492593 C2.06550176,6.89892545 2.50799733,6.84492599 3.042,6.83292593 L3.042,6.63492593 C3.042,6.36192456 2.98575056,6.16467653 2.87325,6.04317593 C2.76074944,5.92167532 2.60100104,5.86092593 2.394,5.86092593 C2.22899918,5.86092593 2.09400053,5.87892575 1.989,5.91492593 C1.88399948,5.95092611 1.79025041,5.9914257 1.70775,6.03642593 C1.62524959,6.08142615 1.54500039,6.12192575 1.467,6.15792593 C1.38899961,6.19392611 1.29600054,6.21192593 1.188,6.21192593 C1.09199952,6.21192593 1.01025034,6.18867616 0.94275,6.14217593 C0.875249663,6.09567569 0.822000195,6.03792627 0.783,5.96892593 L0.531,5.53242593 C0.81300141,5.28342468 1.12574828,5.09817653 1.46925,4.97667593 C1.81275172,4.85517532 2.18099804,4.79442593 2.574,4.79442593 C2.85600141,4.79442593 3.11024887,4.84017547 3.33675,4.93167593 C3.56325113,5.02317638 3.75524921,5.15067511 3.91275,5.31417593 C4.07025079,5.47767674 4.19099958,5.6719248 4.275,5.89692593 C4.35900042,6.12192705 4.401,6.36792459 4.401,6.63492593 L4.401,9.55092593 L3.762,9.55092593 Z M2.16,8.70042593 C2.3400009,8.70042593 2.49749933,8.66892624 2.6325,8.60592593 C2.76750068,8.54292561 2.90399931,8.44092663 3.042,8.29992593 L3.042,7.65192593 C2.76299861,7.66392599 2.5335009,7.68792575 2.3535,7.72392593 C2.1734991,7.75992611 2.03100053,7.80492566 1.926,7.85892593 C1.82099948,7.9129262 1.7482502,7.97442558 1.70775,8.04342593 C1.6672498,8.11242627 1.647,8.18742552 1.647,8.26842593 C1.647,8.42742672 1.69049957,8.5391756 1.7775,8.60367593 C1.86450044,8.66817625 1.99199916,8.70042593 2.16,8.70042593 L2.16,8.70042593 Z M5.391,9.55092593 L5.391,4.88442593 L6.219,4.88442593 C6.28800035,4.88442593 6.34574977,4.89042587 6.39225,4.90242593 C6.43875023,4.91442599 6.47774984,4.9331758 6.50925,4.95867593 C6.54075016,4.98417605 6.56474992,5.01792572 6.58125,5.05992593 C6.59775008,5.10192614 6.61199994,5.15292563 6.624,5.21292593 L6.7005,5.64942593 C6.87150086,5.38542461 7.06349894,5.17692669 7.2765,5.02392593 C7.48950107,4.87092516 7.72199874,4.79442593 7.974,4.79442593 C8.18700107,4.79442593 8.35799936,4.84542542 8.487,4.94742593 L8.307,5.97342593 C8.29499994,6.03642624 8.27100018,6.0806758 8.235,6.10617593 C8.19899982,6.13167605 8.1510003,6.14442593 8.091,6.14442593 C8.03999975,6.14442593 7.98000035,6.13767599 7.911,6.12417593 C7.84199966,6.11067586 7.75500053,6.10392593 7.65,6.10392593 C7.28399817,6.10392593 6.99600105,6.29892398 6.786,6.68892593 L6.786,9.55092593 L5.391,9.55092593 Z M12.474,5.99142593 C12.4319998,6.04242618 12.3915002,6.08292578 12.3525,6.11292593 C12.3134998,6.14292608 12.2580004,6.15792593 12.186,6.15792593 C12.1169997,6.15792593 12.0547503,6.14142609 11.99925,6.10842593 C11.9437497,6.07542576 11.8815003,6.03867613 11.8125,5.99817593 C11.7434997,5.95767572 11.6625005,5.92092609 11.5695,5.88792593 C11.4764995,5.85492576 11.3610007,5.83842593 11.223,5.83842593 C11.0519991,5.83842593 10.9042506,5.86992561 10.77975,5.93292593 C10.6552494,5.99592624 10.5525004,6.08592534 10.4715,6.20292593 C10.3904996,6.31992651 10.3305002,6.46317508 10.2915,6.63267593 C10.2524998,6.80217677 10.233,6.99342486 10.233,7.20642593 C10.233,7.65342816 10.3192491,7.99692473 10.49175,8.23692593 C10.6642509,8.47692713 10.9019985,8.59692593 11.205,8.59692593 C11.3670008,8.59692593 11.4952495,8.57667613 11.58975,8.53617593 C11.6842505,8.49567572 11.7644997,8.45067617 11.8305,8.40117593 C11.8965003,8.35167568 11.9572497,8.30592614 12.01275,8.26392593 C12.0682503,8.22192572 12.1379996,8.20092593 12.222,8.20092593 C12.3330006,8.20092593 12.4169997,8.24142552 12.474,8.32242593 L12.879,8.82192593 C12.7349993,8.98692675 12.5835008,9.12117541 12.4245,9.22467593 C12.2654992,9.32817644 12.1027508,9.40917563 11.93625,9.46767593 C11.7697492,9.52617622 11.6025008,9.56667581 11.4345,9.58917593 C11.2664992,9.61167604 11.1030008,9.62292593 10.944,9.62292593 C10.6589986,9.62292593 10.3867513,9.56892647 10.12725,9.46092593 C9.8677487,9.35292539 9.63975098,9.19617695 9.44325,8.99067593 C9.24674902,8.7851749 9.09075058,8.53242743 8.97525,8.23242593 C8.85974942,7.93242443 8.802,7.59042785 8.802,7.20642593 C8.802,6.87042425 8.8522495,6.55617739 8.95275,6.26367593 C9.0532505,5.97117446 9.20174902,5.717677 9.39825,5.50317593 C9.59475098,5.28867485 9.83774855,5.11992654 10.12725,4.99692593 C10.4167514,4.87392531 10.7519981,4.81242593 11.133,4.81242593 C11.4990018,4.81242593 11.8199986,4.87092534 12.096,4.98792593 C12.3720014,5.10492651 12.6209989,5.2759248 12.843,5.50092593 L12.474,5.99142593 Z M16.335,5.90592593 C16.2989998,5.96292621 16.2607502,6.00342581 16.22025,6.02742593 C16.1797498,6.05142605 16.1280003,6.06342593 16.065,6.06342593 C15.9989997,6.06342593 15.9330003,6.04917607 15.867,6.02067593 C15.8009997,5.99217578 15.7297504,5.96142609 15.65325,5.92842593 C15.5767496,5.89542576 15.4905005,5.86467607 15.3945,5.83617593 C15.2984995,5.80767578 15.1890006,5.79342593 15.066,5.79342593 C14.8889991,5.79342593 14.7532505,5.82717559 14.65875,5.89467593 C14.5642495,5.96217626 14.517,6.05592533 14.517,6.17592593 C14.517,6.26292636 14.5477497,6.33492564 14.60925,6.39192593 C14.6707503,6.44892621 14.7524995,6.49917571 14.8545,6.54267593 C14.9565005,6.58617614 15.0719994,6.62742573 15.201,6.66642593 C15.3300006,6.70542612 15.4619993,6.74892569 15.597,6.79692593 C15.7320007,6.84492617 15.8639994,6.9011756 15.993,6.96567593 C16.1220006,7.03017625 16.2374995,7.10967545 16.3395,7.20417593 C16.4415005,7.2986764 16.5232497,7.41342525 16.58475,7.54842593 C16.6462503,7.6834266 16.677,7.84542498 16.677,8.03442593 C16.677,8.26542708 16.6350004,8.47842495 16.551,8.67342593 C16.4669996,8.8684269 16.3417508,9.03642522 16.17525,9.17742593 C16.0087492,9.31842663 15.8032512,9.42792554 15.55875,9.50592593 C15.3142488,9.58392632 15.0330016,9.62292593 14.715,9.62292593 C14.5559992,9.62292593 14.3970008,9.60792608 14.238,9.57792593 C14.0789992,9.54792578 13.9252507,9.50742618 13.77675,9.45642593 C13.6282493,9.40542567 13.4910006,9.34467628 13.365,9.27417593 C13.2389994,9.20367557 13.1310005,9.12792633 13.041,9.04692593 L13.365,8.53392593 C13.4040002,8.47392563 13.4504997,8.4266761 13.5045,8.39217593 C13.5585003,8.35767575 13.6289996,8.34042593 13.716,8.34042593 C13.7970004,8.34042593 13.8697497,8.35842575 13.93425,8.39442593 C13.9987503,8.43042611 14.0684996,8.46942572 14.1435,8.51142593 C14.2185004,8.55342614 14.3062495,8.59242575 14.40675,8.62842593 C14.5072505,8.66442611 14.6339992,8.68242593 14.787,8.68242593 C14.8950005,8.68242593 14.9864996,8.67117604 15.0615,8.64867593 C15.1365004,8.62617581 15.1964998,8.59542612 15.2415,8.55642593 C15.2865002,8.51742573 15.3194999,8.47392617 15.3405,8.42592593 C15.3615001,8.37792569 15.372,8.32842618 15.372,8.27742593 C15.372,8.18442546 15.3405003,8.10792623 15.2775,8.04792593 C15.2144997,7.98792563 15.1320005,7.93617614 15.03,7.89267593 C14.9279995,7.84917571 14.8117507,7.80867611 14.68125,7.77117593 C14.5507493,7.73367574 14.4180007,7.69092617 14.283,7.64292593 C14.1479993,7.59492569 14.0152507,7.53717626 13.88475,7.46967593 C13.7542493,7.40217559 13.6380005,7.31667644 13.536,7.21317593 C13.4339995,7.10967541 13.3515003,6.98292668 13.2885,6.83292593 C13.2254997,6.68292518 13.194,6.50142699 13.194,6.28842593 C13.194,6.09042494 13.2322496,5.90217682 13.30875,5.72367593 C13.3852504,5.54517503 13.4999992,5.3884266 13.653,5.25342593 C13.8060008,5.11842525 13.9979988,5.01117632 14.229,4.93167593 C14.4600012,4.85217553 14.7299985,4.81242593 15.039,4.81242593 C15.2070008,4.81242593 15.3697492,4.82742578 15.52725,4.85742593 C15.6847508,4.88742608 15.8324993,4.92942566 15.9705,4.98342593 C16.1085007,5.0374262 16.2344994,5.10117556 16.3485,5.17467593 C16.4625006,5.24817629 16.5629996,5.32842549 16.65,5.41542593 L16.335,5.90592593 Z M18.882,4.88442593 L18.882,9.55092593 L17.487,9.55092593 L17.487,4.88442593 L18.882,4.88442593 Z M19.044,3.60642593 C19.044,3.71742648 19.0215002,3.82167544 18.9765,3.91917593 C18.9314998,4.01667641 18.8700004,4.10217556 18.792,4.17567593 C18.7139996,4.24917629 18.6232505,4.30767571 18.51975,4.35117593 C18.4162495,4.39467614 18.3060006,4.41642593 18.189,4.41642593 C18.0749994,4.41642593 17.9685005,4.39467614 17.8695,4.35117593 C17.7704995,4.30767571 17.6827504,4.24917629 17.60625,4.17567593 C17.5297496,4.10217556 17.4697502,4.01667641 17.42625,3.91917593 C17.3827498,3.82167544 17.361,3.71742648 17.361,3.60642593 C17.361,3.49242536 17.3827498,3.38592642 17.42625,3.28692593 C17.4697502,3.18792543 17.5297496,3.1009263 17.60625,3.02592593 C17.6827504,2.95092555 17.7704995,2.89242614 17.8695,2.85042593 C17.9685005,2.80842572 18.0749994,2.78742593 18.189,2.78742593 C18.3060006,2.78742593 18.4162495,2.80842572 18.51975,2.85042593 C18.6232505,2.89242614 18.7139996,2.95092555 18.792,3.02592593 C18.8700004,3.1009263 18.9314998,3.18792543 18.9765,3.28692593 C19.0215002,3.38592642 19.044,3.49242536 19.044,3.60642593 L19.044,3.60642593 Z M20.007,9.55092593 L20.007,4.88442593 L20.871,4.88442593 C20.9580004,4.88442593 21.0307497,4.90392573 21.08925,4.94292593 C21.1477503,4.98192612 21.1889999,5.04042554 21.213,5.11842593 L21.294,5.38842593 C21.3840005,5.30442551 21.4769995,5.22642629 21.573,5.15442593 C21.6690005,5.08242557 21.7717495,5.02167617 21.88125,4.97217593 C21.9907505,4.92267568 22.1092494,4.88367607 22.23675,4.85517593 C22.3642506,4.82667578 22.5029993,4.81242593 22.653,4.81242593 C22.9080013,4.81242593 23.133749,4.85667548 23.33025,4.94517593 C23.526751,5.03367637 23.6924993,5.15667514 23.8275,5.31417593 C23.9625007,5.47167671 24.0644997,5.65917484 24.1335,5.87667593 C24.2025003,6.09417701 24.237,6.33042465 24.237,6.58542593 L24.237,9.55092593 L22.842,9.55092593 L22.842,6.58542593 C22.842,6.35742479 22.7895005,6.17967656 22.6845,6.05217593 C22.5794995,5.92467529 22.425001,5.86092593 22.221,5.86092593 C22.0679992,5.86092593 21.9240007,5.8939256 21.789,5.95992593 C21.6539993,6.02592626 21.5250006,6.11442537 21.402,6.22542593 L21.402,9.55092593 L20.007,9.55092593 Z" id="arcsin"></path>
                <path d="M29.5,6.12612124 L29.1669922,5.24526186 C28.9235014,4.62221187 28.7910157,4.2856267 28.7695312,4.23549624 L28.2539062,3.08608218 C27.88867,2.26251035 27.5377621,1.85073061 27.2011719,1.85073061 C26.6927058,1.85073061 26.2916681,2.32696283 25.9980469,3.27944155 C25.7832021,3.20066512 25.6757812,3.08608293 25.6757812,2.93569155 C25.6757812,2.49167891 25.9335912,1.98322046 26.4492188,1.41030093 C26.9648463,0.837381395 27.4267558,0.550925926 27.8349609,0.550925926 C28.6370483,0.550925926 29.4677691,1.70390919 30.3271484,4.0099103 L30.5419922,4.57924624 L30.7890625,4.1817853 C32.3144608,1.76120028 33.5999297,0.550925926 34.6455078,0.550925926 C34.9176446,0.550925926 35.2363263,0.62970118 35.6015625,0.787254051 L34.3017578,2.15151186 C34.129882,2.1013814 34.0081384,2.07631655 33.9365234,2.07631655 C33.1487591,2.07631655 32.2106174,2.98223197 31.1220703,4.79408999 L30.8105469,5.30971499 L31.0576172,5.97573061 C32.0029344,8.57535299 32.7799449,9.87514468 33.3886719,9.87514468 C33.9472684,9.87514468 34.3733709,9.47410702 34.6669922,8.67201968 C34.867514,8.80092657 34.9677734,8.93341222 34.9677734,9.06948061 C34.9677734,9.42755532 34.681318,9.85723852 34.1083984,10.3585431 C33.5354789,10.8598477 33.0413432,11.1104962 32.6259766,11.1104962 C31.7952432,11.1104962 30.9466189,9.93960951 30.0800781,7.59780093 L29.7792969,6.80287905 L29.4677734,7.35073061 C28.0068286,9.85725356 26.6103582,11.1104962 25.2783203,11.1104962 C24.7770157,11.1104962 24.3509132,10.985172 24,10.7345197 L25.2460938,9.5099103 C25.4609386,9.72475513 25.7115871,9.83217593 25.9980469,9.83217593 C26.8072957,9.83217593 27.7167918,9.01577784 28.7265625,7.38295718 L29.2851562,6.48061343 L29.5,6.12612124 Z" id="x-copy-7"></path>
            </g>
        </g>
    </g>
</svg>