<?xml version="1.0" encoding="UTF-8" standalone="no"?>
<svg width="23px" height="11px" viewBox="0 0 23 11" version="1.1" xmlns="http://www.w3.org/2000/svg" xmlns:xlink="http://www.w3.org/1999/xlink">
    <!-- Generator: Sketch 39.1 (31720) - http://www.bohemiancoding.com/sketch -->
    <title>node-function-ln-icon</title>
    <desc>Created with Sketch.</desc>
    <defs></defs>
    <g id="Page-1" stroke="none" stroke-width="1" fill="none" fill-rule="evenodd">
        <g id="Desktop-HD" transform="translate(-531.000000, -161.000000)" fill="#FFFFFF">
            <g id="node-function-ln-icon" transform="translate(531.000000, 161.000000)">
                <path d="M2.64,1.018 L2.64,10 L0.78,10 L0.78,1.018 L2.64,1.018 Z M4.14,10 L4.14,3.778 L5.292,3.778 C5.40800058,3.778 5.50499961,3.80399974 5.583,3.856 C5.66100039,3.90800026 5.71599984,3.98599948 5.748,4.09 L5.856,4.45 C5.9760006,4.33799944 6.09999936,4.23400048 6.228,4.138 C6.35600064,4.04199952 6.49299927,3.96100033 6.639,3.895 C6.78500073,3.82899967 6.94299915,3.77700019 7.113,3.739 C7.28300085,3.70099981 7.467999,3.682 7.668,3.682 C8.0080017,3.682 8.30899869,3.74099941 8.571,3.859 C8.83300131,3.97700059 9.0539991,4.14099895 9.234,4.351 C9.4140009,4.56100105 9.54999954,4.81099855 9.642,5.101 C9.73400046,5.39100145 9.78,5.7059983 9.78,6.046 L9.78,10 L7.92,10 L7.92,6.046 C7.92,5.74199848 7.8500007,5.50500085 7.71,5.335 C7.5699993,5.16499915 7.36400136,5.08 7.092,5.08 C6.88799898,5.08 6.6960009,5.12399956 6.516,5.212 C6.3359991,5.30000044 6.16400082,5.41799926 6,5.566 L6,10 L4.14,10 Z" id="ln"></path>
                <path d="M16.5,5.57519531 L16.1669922,4.69433594 C15.9235014,4.07128595 15.7910157,3.73470077 15.7695312,3.68457031 L15.2539062,2.53515625 C14.88867,1.71158442 14.5377621,1.29980469 14.2011719,1.29980469 C13.6927058,1.29980469 13.2916681,1.7760369 12.9980469,2.72851562 C12.7832021,2.64973919 12.6757812,2.535157 12.6757812,2.38476562 C12.6757812,1.94075299 12.9335912,1.43229453 13.4492188,0.859375 C13.9648463,0.286455469 14.4267558,0 14.8349609,0 C15.6370483,0 16.4677691,1.15298326 17.3271484,3.45898438 L17.5419922,4.02832031 L17.7890625,3.63085938 C19.3144608,1.21027436 20.5999297,0 21.6455078,0 C21.9176446,0 22.2363263,0.0787752539 22.6015625,0.236328125 L21.3017578,1.60058594 C21.129882,1.55045548 21.0081384,1.52539063 20.9365234,1.52539063 C20.1487591,1.52539063 19.2106174,2.43130604 18.1220703,4.24316406 L17.8105469,4.75878906 L18.0576172,5.42480469 C19.0029344,8.02442706 19.7799449,9.32421875 20.3886719,9.32421875 C20.9472684,9.32421875 21.3733709,8.92318109 21.6669922,8.12109375 C21.867514,8.25000064 21.9677734,8.3824863 21.9677734,8.51855469 C21.9677734,8.87662939 21.681318,9.3063126 21.1083984,9.80761719 C20.5354789,10.3089218 20.0413432,10.5595703 19.6259766,10.5595703 C18.7952432,10.5595703 17.9466189,9.38868358 17.0800781,7.046875 L16.7792969,6.25195312 L16.4677734,6.79980469 C15.0068286,9.30632764 13.6103582,10.5595703 12.2783203,10.5595703 C11.7770157,10.5595703 11.3509132,10.434246 11,10.1835938 L12.2460938,8.95898438 C12.4609386,9.1738292 12.7115871,9.28125 12.9980469,9.28125 C13.8072957,9.28125 14.7167918,8.46485191 15.7265625,6.83203125 L16.2851562,5.9296875 L16.5,5.57519531 Z" id="x-copy-5"></path>
            </g>
        </g>
    </g>
</svg>