<?xml version="1.0" encoding="UTF-8" standalone="no"?>
<svg width="27px" height="22px" viewBox="0 0 27 22" version="1.1" xmlns="http://www.w3.org/2000/svg" xmlns:xlink="http://www.w3.org/1999/xlink">
    <!-- Generator: Sketch 39.1 (31720) - http://www.bohemiancoding.com/sketch -->
    <title>node-function-root-icon</title>
    <desc>Created with Sketch.</desc>
    <defs></defs>
    <g id="Page-1" stroke="none" stroke-width="1" fill="none" fill-rule="evenodd">
        <g id="Desktop-HD" transform="translate(-526.000000, -93.000000)" fill="#FFFFFF">
            <g id="node-function-root-icon" transform="translate(526.000000, 93.000000)">
                <polygon id="Path-5" points="4.41368393 14.042846 2.99781317 13.8497757 7.06552548 19.3202127 8.44126194 21.1703632 8.85199506 18.9016618 12.0607183 1.17814728 11.0767144 2 26.6414472 2 26.6414472 0 11.0767144 0 10.2415015 0 10.0927106 0.821852719 6.8839874 18.5453673 8.67045698 18.1268164 4.60274468 12.6563793 3.99339177 11.8368949 3.18687391 12.463309 0 14.9385209 1.22681002 16.5180579"></polygon>
                <path d="M18.5,13.5751953 L18.1669922,12.6943359 C17.9235014,12.0712859 17.7910157,11.7347008 17.7695312,11.6845703 L17.2539062,10.5351562 C16.88867,9.71158442 16.5377621,9.29980469 16.2011719,9.29980469 C15.6927058,9.29980469 15.2916681,9.7760369 14.9980469,10.7285156 C14.7832021,10.6497392 14.6757812,10.535157 14.6757812,10.3847656 C14.6757812,9.94075299 14.9335912,9.43229453 15.4492188,8.859375 C15.9648463,8.28645547 16.4267558,8 16.8349609,8 C17.6370483,8 18.4677691,9.15298326 19.3271484,11.4589844 L19.5419922,12.0283203 L19.7890625,11.6308594 C21.3144608,9.21027436 22.5999297,8 23.6455078,8 C23.9176446,8 24.2363263,8.07877525 24.6015625,8.23632812 L23.3017578,9.60058594 C23.129882,9.55045548 23.0081384,9.52539062 22.9365234,9.52539062 C22.1487591,9.52539062 21.2106174,10.431306 20.1220703,12.2431641 L19.8105469,12.7587891 L20.0576172,13.4248047 C21.0029344,16.0244271 21.7799449,17.3242188 22.3886719,17.3242188 C22.9472684,17.3242188 23.3733709,16.9231811 23.6669922,16.1210938 C23.867514,16.2500006 23.9677734,16.3824863 23.9677734,16.5185547 C23.9677734,16.8766294 23.681318,17.3063126 23.1083984,17.8076172 C22.5354789,18.3089218 22.0413432,18.5595703 21.6259766,18.5595703 C20.7952432,18.5595703 19.9466189,17.3886836 19.0800781,15.046875 L18.7792969,14.2519531 L18.4677734,14.7998047 C17.0068286,17.3063276 15.6103582,18.5595703 14.2783203,18.5595703 C13.7770157,18.5595703 13.3509132,18.434246 13,18.1835938 L14.2460938,16.9589844 C14.4609386,17.1738292 14.7115871,17.28125 14.9980469,17.28125 C15.8072957,17.28125 16.7167918,16.4648519 17.7265625,14.8320312 L18.2851562,13.9296875 L18.5,13.5751953 Z" id="x-copy-2"></path>
            </g>
        </g>
    </g>
</svg>