<?xml version="1.0" encoding="UTF-8" standalone="no"?>
<svg width="26px" height="22px" viewBox="0 0 26 22" version="1.1" xmlns="http://www.w3.org/2000/svg" xmlns:xlink="http://www.w3.org/1999/xlink">
    <!-- Generator: Sketch 39 (31667) - http://www.bohemiancoding.com/sketch -->
    <title>node-function-abs-icon</title>
    <desc>Created with Sketch.</desc>
    <defs></defs>
    <g id="Page-1" stroke="none" stroke-width="1" fill="none" fill-rule="evenodd">
        <g id="Desktop-HD" transform="translate(-435.000000, -164.000000)" fill="#FFFFFF">
            <g id="node-function-abs-icon" transform="translate(435.000000, 164.000000)">
                <rect id="Rectangle-5-Copy-7" x="0" y="0" width="3.5" height="22"></rect>
                <g id="Group-6-Copy-2" transform="translate(24.000000, 11.000000) scale(-1, 1) translate(-24.000000, -11.000000) translate(22.000000, 0.000000)">
                    <rect id="Rectangle-5-Copy-3" x="0" y="0" width="3.5" height="22"></rect>
                </g>
                <path d="M12.5751953,11.2949219 L12.2421875,10.4140625 C11.9986967,9.79101251 11.866211,9.45442733 11.8447266,9.40429688 L11.3291016,8.25488281 C10.9638654,7.43131099 10.6129574,7.01953125 10.2763672,7.01953125 C9.7679011,7.01953125 9.36686345,7.49576347 9.07324219,8.44824219 C8.85839736,8.36946575 8.75097656,8.25488356 8.75097656,8.10449219 C8.75097656,7.66047955 9.00878648,7.15202109 9.52441406,6.57910156 C10.0400416,6.00618203 10.5019511,5.71972656 10.9101562,5.71972656 C11.7122436,5.71972656 12.5429645,6.87270982 13.4023438,9.17871094 L13.6171875,9.74804688 L13.8642578,9.35058594 C15.3896561,6.93000092 16.675125,5.71972656 17.7207031,5.71972656 C17.9928399,5.71972656 18.3115216,5.79850182 18.6767578,5.95605469 L17.3769531,7.3203125 C17.2050773,7.27018204 17.0833337,7.24511719 17.0117188,7.24511719 C16.2239544,7.24511719 15.2858127,8.15103261 14.1972656,9.96289062 L13.8857422,10.4785156 L14.1328125,11.1445312 C15.0781297,13.7441536 15.8551402,15.0439453 16.4638672,15.0439453 C17.0224637,15.0439453 17.4485662,14.6429077 17.7421875,13.8408203 C17.9427093,13.9697272 18.0429688,14.1022129 18.0429688,14.2382812 C18.0429688,14.596356 17.7565133,15.0260392 17.1835938,15.5273438 C16.6106742,16.0286483 16.1165385,16.2792969 15.7011719,16.2792969 C14.8704386,16.2792969 14.0218142,15.1084101 13.1552734,12.7666016 L12.8544922,11.9716797 L12.5429688,12.5195312 C11.0820239,15.0260542 9.68555354,16.2792969 8.35351562,16.2792969 C7.85221104,16.2792969 7.42610853,16.1539726 7.07519531,15.9033203 L8.32128906,14.6787109 C8.53613389,14.8935558 8.78678242,15.0009766 9.07324219,15.0009766 C9.88249103,15.0009766 10.7919871,14.1845785 11.8017578,12.5517578 L12.3603516,11.6494141 L12.5751953,11.2949219 Z" id="x-copy-2"></path>
            </g>
        </g>
    </g>
</svg>