<?xml version="1.0" encoding="UTF-8" standalone="no"?>
<svg width="18px" height="18px" viewBox="0 0 18 18" version="1.1" xmlns="http://www.w3.org/2000/svg" xmlns:xlink="http://www.w3.org/1999/xlink">
    <!-- Generator: Sketch 39.1 (31720) - http://www.bohemiancoding.com/sketch -->
    <title>node-function-square-icon</title>
    <desc>Created with Sketch.</desc>
    <defs></defs>
    <g id="Page-1" stroke="none" stroke-width="1" fill="none" fill-rule="evenodd">
        <g id="Desktop-HD" transform="translate(-530.000000, -57.000000)" fill="#FFFFFF">
            <g id="node-function-square-icon" transform="translate(530.000000, 57.000000)">
                <path d="M5.5,12.5751953 L5.16699219,11.6943359 C4.92350139,11.0712859 4.79101573,10.7347008 4.76953125,10.6845703 L4.25390625,9.53515625 C3.88867005,8.71158442 3.5377621,8.29980469 3.20117188,8.29980469 C2.69270579,8.29980469 2.29166813,8.7760369 1.99804688,9.72851562 C1.78320205,9.64973919 1.67578125,9.535157 1.67578125,9.38476562 C1.67578125,8.94075299 1.93359117,8.43229453 2.44921875,7.859375 C2.96484633,7.28645547 3.42675577,7 3.83496094,7 C4.63704828,7 5.46776914,8.15298326 6.32714844,10.4589844 L6.54199219,11.0283203 L6.7890625,10.6308594 C8.31446075,8.21027436 9.59992967,7 10.6455078,7 C10.9176446,7 11.2363263,7.07877525 11.6015625,7.23632812 L10.3017578,8.60058594 C10.129882,8.55045548 10.0081384,8.52539062 9.93652344,8.52539062 C9.14875908,8.52539062 8.21061742,9.43130604 7.12207031,11.2431641 L6.81054688,11.7587891 L7.05761719,12.4248047 C8.00293441,15.0244271 8.77994487,16.3242188 9.38867188,16.3242188 C9.94726842,16.3242188 10.3733709,15.9231811 10.6669922,15.1210938 C10.867514,15.2500006 10.9677734,15.3824863 10.9677734,15.5185547 C10.9677734,15.8766294 10.681318,16.3063126 10.1083984,16.8076172 C9.53547891,17.3089218 9.04134322,17.5595703 8.62597656,17.5595703 C7.79524324,17.5595703 6.94661892,16.3886836 6.08007812,14.046875 L5.77929688,13.2519531 L5.46777344,13.7998047 C4.00682863,16.3063276 2.61035822,17.5595703 1.27832031,17.5595703 C0.777015723,17.5595703 0.350913213,17.434246 0,17.1835938 L1.24609375,15.9589844 C1.46093857,16.1738292 1.71158711,16.28125 1.99804688,16.28125 C2.80729571,16.28125 3.71679183,15.4648519 4.7265625,13.8320312 L5.28515625,12.9296875 L5.5,12.5751953 Z" id="x-copy-3"></path>
                <path d="M15.311,0.8985 C15.707002,0.8985 16.0635817,0.956249422 16.38075,1.07175 C16.6979183,1.18725058 16.9683322,1.34766564 17.192,1.553 C17.4156678,1.75833436 17.5870827,2.00308191 17.70625,2.28725 C17.8254173,2.57141809 17.885,2.8839983 17.885,3.225 C17.885,3.5183348 17.8437504,3.78966542 17.76125,4.039 C17.6787496,4.28833458 17.5660007,4.52574887 17.423,4.75125 C17.2799993,4.97675113 17.1140843,5.19491561 16.92525,5.40575 C16.7364157,5.61658439 16.5356677,5.83016558 16.323,6.0465 L14.7555,7.6525 C14.9571677,7.59383304 15.1560824,7.54708351 15.35225,7.51225 C15.5484176,7.47741649 15.7326658,7.46 15.905,7.46 L17.401,7.46 C17.5843342,7.46 17.7291661,7.51041616 17.8355,7.61125 C17.9418339,7.71208384 17.995,7.84499917 17.995,8.01 L17.995,9 L12.363,9 L12.363,8.45 C12.363,8.34366613 12.3849998,8.2300006 12.429,8.109 C12.4730002,7.98799939 12.5499994,7.87800049 12.66,7.779 L14.97,5.4525 C15.168001,5.25449901 15.3403326,5.06566757 15.487,4.886 C15.6336674,4.70633243 15.7546662,4.52941754 15.85,4.35525 C15.9453338,4.18108246 16.0168331,4.00691754 16.0645,3.83275 C16.1121669,3.65858246 16.136,3.47433431 16.136,3.28 C16.136,2.9609984 16.0599174,2.71625085 15.90775,2.54575 C15.7555826,2.37524915 15.5236682,2.29 15.212,2.29 C15.083666,2.29 14.9663339,2.30833315 14.86,2.345 C14.7536661,2.38166685 14.6583338,2.43116636 14.574,2.4935 C14.4896662,2.55583365 14.4172503,2.62916625 14.35675,2.7135 C14.2962497,2.79783375 14.2476668,2.88949951 14.211,2.9885 C14.152333,3.15350082 14.0780838,3.2726663 13.98825,3.346 C13.8984162,3.4193337 13.7765008,3.456 13.6225,3.456 C13.5858331,3.456 13.5464169,3.45416669 13.50425,3.4505 C13.4620831,3.44683331 13.4190002,3.44133337 13.375,3.434 L12.473,3.2745 C12.531667,2.87483134 12.6444158,2.52650148 12.81125,2.2295 C12.9780842,1.93249852 13.1852488,1.68500099 13.43275,1.487 C13.6802512,1.28899901 13.9634984,1.14141715 14.2825,1.04425 C14.6015016,0.947082847 14.9443315,0.8985 15.311,0.8985 L15.311,0.8985 Z" id="2"></path>
            </g>
        </g>
    </g>
</svg>