<?xml version="1.0" encoding="UTF-8" standalone="no"?>
<svg width="32px" height="19px" viewBox="0 0 32 19" version="1.1" xmlns="http://www.w3.org/2000/svg" xmlns:xlink="http://www.w3.org/1999/xlink">
    <!-- Generator: Sketch 39.1 (31720) - http://www.bohemiancoding.com/sketch -->
    <title>node-function-log10-icon</title>
    <desc>Created with Sketch.</desc>
    <defs></defs>
    <g id="Page-1" stroke="none" stroke-width="1" fill="none" fill-rule="evenodd">
        <g id="Desktop-HD" transform="translate(-525.000000, -192.000000)" fill="#FFFFFF">
            <g id="node-function-log10-icon" transform="translate(525.000000, 192.000000)">
                <path d="M2.64,1.56892593 L2.64,10.5509259 L0.78,10.5509259 L0.78,1.56892593 L2.64,1.56892593 Z M6.912,4.23292593 C7.38400236,4.23292593 7.81399806,4.30692519 8.202,4.45492593 C8.59000194,4.60292667 8.92299861,4.81492455 9.201,5.09092593 C9.47900139,5.36692731 9.69499923,5.70192396 9.849,6.09592593 C10.0030008,6.4899279 10.08,6.93292347 10.08,7.42492593 C10.08,7.92092841 10.0030008,8.36792394 9.849,8.76592593 C9.69499923,9.16392792 9.47900139,9.50192454 9.201,9.77992593 C8.92299861,10.0579273 8.59000194,10.2719252 8.202,10.4219259 C7.81399806,10.5719267 7.38400236,10.6469259 6.912,10.6469259 C6.43599762,10.6469259 6.00300195,10.5719267 5.613,10.4219259 C5.22299805,10.2719252 4.88700141,10.0579273 4.605,9.77992593 C4.32299859,9.50192454 4.10500077,9.16392792 3.951,8.76592593 C3.79699923,8.36792394 3.72,7.92092841 3.72,7.42492593 C3.72,6.93292347 3.79699923,6.4899279 3.951,6.09592593 C4.10500077,5.70192396 4.32299859,5.36692731 4.605,5.09092593 C4.88700141,4.81492455 5.22299805,4.60292667 5.613,4.45492593 C6.00300195,4.30692519 6.43599762,4.23292593 6.912,4.23292593 L6.912,4.23292593 Z M6.912,9.26692593 C7.34000214,9.26692593 7.65499899,9.11592744 7.857,8.81392593 C8.05900101,8.51192442 8.16,8.05292901 8.16,7.43692593 C8.16,6.82092285 8.05900101,6.36292743 7.857,6.06292593 C7.65499899,5.76292443 7.34000214,5.61292593 6.912,5.61292593 C6.4719978,5.61292593 6.15000102,5.76292443 5.946,6.06292593 C5.74199898,6.36292743 5.64,6.82092285 5.64,7.43692593 C5.64,8.05292901 5.74199898,8.51192442 5.946,8.81392593 C6.15000102,9.11592744 6.4719978,9.26692593 6.912,9.26692593 L6.912,9.26692593 Z M13.296,4.22092593 C13.5600013,4.22092593 13.8089988,4.24692567 14.043,4.29892593 C14.2770012,4.35092619 14.493999,4.42492545 14.694,4.52092593 L16.572,4.52092593 L16.572,5.19892593 C16.572,5.30292645 16.5430003,5.38492563 16.485,5.44492593 C16.4269997,5.50492623 16.3280007,5.55092577 16.188,5.58292593 L15.732,5.68492593 C15.7880003,5.86492683 15.816,6.05092497 15.816,6.24292593 C15.816,6.55492749 15.7510007,6.83492469 15.621,7.08292593 C15.4909994,7.33092717 15.3130011,7.54192506 15.087,7.71592593 C14.8609989,7.8899268 14.5940015,8.02392546 14.286,8.11792593 C13.9779985,8.2119264 13.6480018,8.25892593 13.296,8.25892593 C13.099999,8.25892593 12.9160009,8.24692605 12.744,8.22292593 C12.6079993,8.30292633 12.54,8.39492541 12.54,8.49892593 C12.54,8.60292645 12.5949995,8.6779257 12.705,8.72392593 C12.8150006,8.76992616 12.9599991,8.80192584 13.14,8.81992593 C13.3200009,8.83792602 13.5259988,8.8499259 13.758,8.85592593 C13.9900012,8.86192596 14.2259988,8.87592582 14.466,8.89792593 C14.7060012,8.91992604 14.9419988,8.95692567 15.174,9.00892593 C15.4060012,9.06092619 15.6119991,9.14492535 15.792,9.26092593 C15.9720009,9.37692651 16.1169994,9.53192496 16.227,9.72592593 C16.3370005,9.9199269 16.392,10.1669244 16.392,10.4669259 C16.392,10.7469273 16.3240007,11.0209246 16.188,11.2889259 C16.0519993,11.5569273 15.8520013,11.7949249 15.588,12.0029259 C15.3239987,12.210927 15.0000019,12.3779253 14.616,12.5039259 C14.2319981,12.6299266 13.7920025,12.6929259 13.296,12.6929259 C12.8079976,12.6929259 12.3870018,12.6469264 12.033,12.5549259 C11.6789982,12.4629255 11.3850012,12.3419267 11.151,12.1919259 C10.9169988,12.0419252 10.7440006,11.8689269 10.632,11.6729259 C10.5199994,11.4769249 10.464,11.272927 10.464,11.0609259 C10.464,10.7849245 10.5479992,10.5519269 10.716,10.3619259 C10.8840008,10.171925 11.1139985,10.0229265 11.406,9.91492593 C11.2659993,9.82292547 11.1540004,9.70492665 11.07,9.56092593 C10.9859996,9.41692521 10.944,9.23492703 10.944,9.01492593 C10.944,8.92292547 10.9599998,8.82592644 10.992,8.72392593 C11.0240002,8.62192542 11.0739997,8.52292641 11.142,8.42692593 C11.2100003,8.33092545 11.2959995,8.23892637 11.4,8.15092593 C11.5040005,8.06292549 11.6279993,7.98492627 11.772,7.91692593 C11.4479984,7.74492507 11.1930009,7.51692735 11.007,7.23292593 C10.8209991,6.94892451 10.728,6.61892781 10.728,6.24292593 C10.728,5.93092437 10.7939993,5.64992718 10.926,5.39992593 C11.0580007,5.14992468 11.2389988,4.9379268 11.469,4.76392593 C11.6990012,4.58992506 11.9699984,4.4559264 12.282,4.36192593 C12.5940016,4.26792546 12.9319982,4.22092593 13.296,4.22092593 L13.296,4.22092593 Z M14.676,10.7789259 C14.676,10.6789254 14.6450003,10.5989262 14.583,10.5389259 C14.5209997,10.4789256 14.4370005,10.4309261 14.331,10.3949259 C14.2249995,10.3589257 14.1010007,10.332926 13.959,10.3169259 C13.8169993,10.3009258 13.6640008,10.288926 13.5,10.2809259 C13.3359992,10.2729259 13.1660009,10.265926 12.99,10.2599259 C12.8139991,10.2539259 12.6400009,10.240926 12.468,10.2209259 C12.3519994,10.3009263 12.2570004,10.3899254 12.183,10.4879259 C12.1089996,10.5859264 12.072,10.6969253 12.072,10.8209259 C12.072,10.9089264 12.0909998,10.9889256 12.129,11.0609259 C12.1670002,11.1329263 12.2339995,11.1949257 12.33,11.2469259 C12.4260005,11.2989262 12.5549992,11.3399258 12.717,11.3699259 C12.8790008,11.3999261 13.0839988,11.4149259 13.332,11.4149259 C13.6000013,11.4149259 13.8199991,11.3989261 13.992,11.3669259 C14.1640009,11.3349258 14.3009995,11.2909262 14.403,11.2349259 C14.5050005,11.1789256 14.5759998,11.1119263 14.616,11.0339259 C14.6560002,10.9559255 14.676,10.8709264 14.676,10.7789259 L14.676,10.7789259 Z M13.296,7.11292593 C13.6040015,7.11292593 13.8269993,7.0359267 13.965,6.88192593 C14.1030007,6.72792516 14.172,6.52892715 14.172,6.28492593 C14.172,6.03292467 14.1030007,5.83492665 13.965,5.69092593 C13.8269993,5.54692521 13.6040015,5.47492593 13.296,5.47492593 C12.9879985,5.47492593 12.7650007,5.54692521 12.627,5.69092593 C12.4889993,5.83492665 12.42,6.03292467 12.42,6.28492593 C12.42,6.40492653 12.4369998,6.51492543 12.471,6.61492593 C12.5050002,6.71492643 12.5579996,6.80192556 12.63,6.87592593 C12.7020004,6.9499263 12.7929995,7.00792572 12.903,7.04992593 C13.0130006,7.09192614 13.1439992,7.11292593 13.296,7.11292593 L13.296,7.11292593 Z" id="log"></path>
                <path d="M25.5,6.12612124 L25.1669922,5.24526186 C24.9235014,4.62221187 24.7910157,4.2856267 24.7695312,4.23549624 L24.2539062,3.08608218 C23.88867,2.26251035 23.5377621,1.85073061 23.2011719,1.85073061 C22.6927058,1.85073061 22.2916681,2.32696283 21.9980469,3.27944155 C21.7832021,3.20066512 21.6757812,3.08608293 21.6757812,2.93569155 C21.6757812,2.49167891 21.9335912,1.98322046 22.4492188,1.41030093 C22.9648463,0.837381395 23.4267558,0.550925926 23.8349609,0.550925926 C24.6370483,0.550925926 25.4677691,1.70390919 26.3271484,4.0099103 L26.5419922,4.57924624 L26.7890625,4.1817853 C28.3144608,1.76120028 29.5999297,0.550925926 30.6455078,0.550925926 C30.9176446,0.550925926 31.2363263,0.62970118 31.6015625,0.787254051 L30.3017578,2.15151186 C30.129882,2.1013814 30.0081384,2.07631655 29.9365234,2.07631655 C29.1487591,2.07631655 28.2106174,2.98223197 27.1220703,4.79408999 L26.8105469,5.30971499 L27.0576172,5.97573061 C28.0029344,8.57535299 28.7799449,9.87514468 29.3886719,9.87514468 C29.9472684,9.87514468 30.3733709,9.47410702 30.6669922,8.67201968 C30.867514,8.80092657 30.9677734,8.93341222 30.9677734,9.06948061 C30.9677734,9.42755532 30.681318,9.85723852 30.1083984,10.3585431 C29.5354789,10.8598477 29.0413432,11.1104962 28.6259766,11.1104962 C27.7952432,11.1104962 26.9466189,9.93960951 26.0800781,7.59780093 L25.7792969,6.80287905 L25.4677734,7.35073061 C24.0068286,9.85725356 22.6103582,11.1104962 21.2783203,11.1104962 C20.7770157,11.1104962 20.3509132,10.985172 20,10.7345197 L21.2460938,9.5099103 C21.4609386,9.72475513 21.7115871,9.83217593 21.9980469,9.83217593 C22.8072957,9.83217593 23.7167918,9.01577784 24.7265625,7.38295718 L25.2851562,6.48061343 L25.5,6.12612124 Z" id="x-copy-4"></path>
                <path d="M16.008,17.6549259 L17.128,17.6549259 L17.128,14.7149259 C17.128,14.5709252 17.132,14.42026 17.14,14.2629259 L16.48,14.8109259 C16.4373331,14.8455928 16.3946669,14.8702592 16.352,14.8849259 C16.3093331,14.8995927 16.2680002,14.9069259 16.228,14.9069259 C16.1586663,14.9069259 16.0966669,14.8915927 16.042,14.8609259 C15.9873331,14.8302591 15.9466668,14.7975928 15.92,14.7629259 L15.528,14.2429259 L17.344,12.7189259 L18.368,12.7189259 L18.368,17.6549259 L19.328,17.6549259 L19.328,18.5509259 L16.008,18.5509259 L16.008,17.6549259 Z M24.12,15.6349259 C24.12,16.1442618 24.0653339,16.5855907 23.956,16.9589259 C23.8466661,17.3322611 23.6953343,17.6415914 23.502,17.8869259 C23.3086657,18.1322605 23.0793347,18.3149253 22.814,18.4349259 C22.5486653,18.5549265 22.2613349,18.6149259 21.952,18.6149259 C21.6426651,18.6149259 21.356668,18.5549265 21.094,18.4349259 C20.831332,18.3149253 20.604001,18.1322605 20.412,17.8869259 C20.219999,17.6415914 20.0700005,17.3322611 19.962,16.9589259 C19.8539995,16.5855907 19.8,16.1442618 19.8,15.6349259 C19.8,15.12559 19.8539995,14.6842611 19.962,14.3109259 C20.0700005,13.9375907 20.219999,13.6282605 20.412,13.3829259 C20.604001,13.1375914 20.831332,12.9555932 21.094,12.8369259 C21.356668,12.7182587 21.6426651,12.6589259 21.952,12.6589259 C22.2613349,12.6589259 22.5486653,12.7182587 22.814,12.8369259 C23.0793347,12.9555932 23.3086657,13.1375914 23.502,13.3829259 C23.6953343,13.6282605 23.8466661,13.9375907 23.956,14.3109259 C24.0653339,14.6842611 24.12,15.12559 24.12,15.6349259 L24.12,15.6349259 Z M22.84,15.6349259 C22.84,15.2322572 22.8146669,14.9022605 22.764,14.6449259 C22.7133331,14.3875913 22.6460004,14.1855933 22.562,14.0389259 C22.4779996,13.8922585 22.3826672,13.7915929 22.276,13.7369259 C22.1693328,13.682259 22.0613339,13.6549259 21.952,13.6549259 C21.8426661,13.6549259 21.7353339,13.682259 21.63,13.7369259 C21.5246661,13.7915929 21.4313337,13.8922585 21.35,14.0389259 C21.2686663,14.1855933 21.2033336,14.3875913 21.154,14.6449259 C21.1046664,14.9022605 21.08,15.2322572 21.08,15.6349259 C21.08,16.0402613 21.1046664,16.3709246 21.154,16.6269259 C21.2033336,16.8829272 21.2686663,17.0849252 21.35,17.2329259 C21.4313337,17.3809267 21.5246661,17.482259 21.63,17.5369259 C21.7353339,17.5915929 21.8426661,17.6189259 21.952,17.6189259 C22.0613339,17.6189259 22.1693328,17.5915929 22.276,17.5369259 C22.3826672,17.482259 22.4779996,17.3809267 22.562,17.2329259 C22.6460004,17.0849252 22.7133331,16.8829272 22.764,16.6269259 C22.8146669,16.3709246 22.84,16.0402613 22.84,15.6349259 L22.84,15.6349259 Z" id="10"></path>
            </g>
        </g>
    </g>
</svg>