<?xml version="1.0" encoding="UTF-8" standalone="no"?>
<svg width="19px" height="12px" viewBox="0 0 19 12" version="1.1" xmlns="http://www.w3.org/2000/svg" xmlns:xlink="http://www.w3.org/1999/xlink">
    <!-- Generator: Sketch 39.1 (31720) - http://www.bohemiancoding.com/sketch -->
    <title>node-function-10x-icon</title>
    <desc>Created with Sketch.</desc>
    <defs></defs>
    <g id="Page-1" stroke="none" stroke-width="1" fill="none" fill-rule="evenodd">
        <g id="Desktop-HD" transform="translate(-533.000000, -247.000000)" fill="#FFFFFF">
            <g id="node-function-10x-icon" transform="translate(533.000000, 247.000000)">
                <path d="M1.512,10.2069259 L3.192,10.2069259 L3.192,5.79692593 C3.192,5.58092485 3.19799994,5.35492711 3.21,5.11892593 L2.22,5.94092593 C2.15599968,5.99292619 2.09200032,6.02992582 2.028,6.05192593 C1.96399968,6.07392604 1.9020003,6.08492593 1.842,6.08492593 C1.73799948,6.08492593 1.64500041,6.06192616 1.563,6.01592593 C1.48099959,5.9699257 1.4200002,5.92092619 1.38,5.86892593 L0.792,5.08892593 L3.516,2.80292593 L5.052,2.80292593 L5.052,10.2069259 L6.492,10.2069259 L6.492,11.5509259 L1.512,11.5509259 L1.512,10.2069259 Z M13.68,7.17692593 C13.68,7.94092975 13.5980008,8.60292313 13.434,9.16292593 C13.2699992,9.72292873 13.0430014,10.1869241 12.753,10.5549259 C12.4629985,10.9229278 12.119002,11.196925 11.721,11.3769259 C11.322998,11.5569268 10.8920023,11.6469259 10.428,11.6469259 C9.96399768,11.6469259 9.53500197,11.5569268 9.141,11.3769259 C8.74699803,11.196925 8.40600144,10.9229278 8.118,10.5549259 C7.82999856,10.1869241 7.60500081,9.72292873 7.443,9.16292593 C7.28099919,8.60292313 7.2,7.94092975 7.2,7.17692593 C7.2,6.41292211 7.28099919,5.75092873 7.443,5.19092593 C7.60500081,4.63092313 7.82999856,4.16692777 8.118,3.79892593 C8.40600144,3.43092409 8.74699803,3.15792682 9.141,2.97992593 C9.53500197,2.80192504 9.96399768,2.71292593 10.428,2.71292593 C10.8920023,2.71292593 11.322998,2.80192504 11.721,2.97992593 C12.119002,3.15792682 12.4629985,3.43092409 12.753,3.79892593 C13.0430014,4.16692777 13.2699992,4.63092313 13.434,5.19092593 C13.5980008,5.75092873 13.68,6.41292211 13.68,7.17692593 L13.68,7.17692593 Z M11.76,7.17692593 C11.76,6.57292291 11.7220004,6.07792786 11.646,5.69192593 C11.5699996,5.305924 11.4690006,5.00292703 11.343,4.78292593 C11.2169994,4.56292483 11.0740008,4.41192634 10.914,4.32992593 C10.7539992,4.24792552 10.5920008,4.20692593 10.428,4.20692593 C10.2639992,4.20692593 10.1030008,4.24792552 9.945,4.32992593 C9.78699921,4.41192634 9.64700061,4.56292483 9.525,4.78292593 C9.40299939,5.00292703 9.30500037,5.305924 9.231,5.69192593 C9.15699963,6.07792786 9.12,6.57292291 9.12,7.17692593 C9.12,7.78492897 9.15699963,8.28092401 9.231,8.66492593 C9.30500037,9.04892785 9.40299939,9.35192482 9.525,9.57392593 C9.64700061,9.79592704 9.78699921,9.94792552 9.945,10.0299259 C10.1030008,10.1119263 10.2639992,10.1529259 10.428,10.1529259 C10.5920008,10.1529259 10.7539992,10.1119263 10.914,10.0299259 C11.0740008,9.94792552 11.2169994,9.79592704 11.343,9.57392593 C11.4690006,9.35192482 11.5699996,9.04892785 11.646,8.66492593 C11.7220004,8.28092401 11.76,7.78492897 11.76,7.17692593 L11.76,7.17692593 Z" id="10"></path>
                <path d="M16.3703704,2.9537037 L16.2268519,2.57407407 C16.1219131,2.30555421 16.0648149,2.16049394 16.0555556,2.13888889 L15.8333333,1.64351852 C15.6759251,1.28857847 15.5246921,1.11111111 15.3796296,1.11111111 C15.1604927,1.11111111 14.987655,1.31635597 14.8611111,1.72685185 C14.7685181,1.69290106 14.7222222,1.64351884 14.7222222,1.5787037 C14.7222222,1.38734472 14.8333322,1.16821111 15.0555556,0.921296296 C15.2777789,0.674381481 15.476851,0.550925926 15.6527778,0.550925926 C15.9984585,0.550925926 16.3564796,1.04783454 16.7268519,2.04166667 L16.8194444,2.28703704 L16.9259259,2.11574074 C17.5833366,1.07252565 18.1373434,0.550925926 18.587963,0.550925926 C18.7052475,0.550925926 18.8425918,0.584876204 19,0.652777778 L18.4398148,1.24074074 C18.3657404,1.21913569 18.3132718,1.20833333 18.2824074,1.20833333 C17.9428995,1.20833333 17.5385826,1.59876153 17.0694444,2.37962963 L16.9351852,2.60185185 L17.0416667,2.88888889 C17.4490761,4.00926486 17.7839493,4.56944444 18.0462963,4.56944444 C18.2870382,4.56944444 18.4706784,4.39660667 18.5972222,4.05092593 C18.6836424,4.10648176 18.7268519,4.16357995 18.7268519,4.22222222 C18.7268519,4.37654398 18.6033963,4.56172731 18.3564815,4.77777778 C18.1095667,4.99382824 17.8966058,5.10185185 17.7175926,5.10185185 C17.3595661,5.10185185 16.993829,4.59722727 16.6203704,3.58796296 L16.4907407,3.24537037 L16.3564815,3.48148148 C15.7268487,4.5617338 15.1250029,5.10185185 14.5509259,5.10185185 C14.3348755,5.10185185 14.1512353,5.04784005 14,4.93981481 L14.537037,4.41203704 C14.6296301,4.50463009 14.7376537,4.55092593 14.8611111,4.55092593 C15.2098783,4.55092593 15.6018497,4.19907759 16.037037,3.49537037 L16.2777778,3.10648148 L16.3703704,2.9537037 Z" id="x-copy-11"></path>
            </g>
        </g>
    </g>
</svg>