<?xml version="1.0" encoding="UTF-8" standalone="no"?>
<svg width="37px" height="12px" viewBox="0 0 37 12" version="1.1" xmlns="http://www.w3.org/2000/svg" xmlns:xlink="http://www.w3.org/1999/xlink">
    <!-- Generator: Sketch 39.1 (31720) - http://www.bohemiancoding.com/sketch -->
    <title>node-function-atan-icon</title>
    <desc>Created with Sketch.</desc>
    <defs></defs>
    <g id="Page-1" stroke="none" stroke-width="1" fill="none" fill-rule="evenodd">
        <g id="Desktop-HD" transform="translate(-527.000000, -416.000000)" fill="#FFFFFF">
            <g id="node-function-atan-icon" transform="translate(527.000000, 416.000000)">
                <path d="M3.762,9.55092593 C3.62999934,9.55092593 3.53025034,9.53292611 3.46275,9.49692593 C3.39524966,9.46092575 3.33900023,9.3859265 3.294,9.27192593 L3.195,9.01542593 C3.07799942,9.11442642 2.96550054,9.20142555 2.8575,9.27642593 C2.74949946,9.3514263 2.63775058,9.41517566 2.52225,9.46767593 C2.40674942,9.52017619 2.28375065,9.5591758 2.15325,9.58467593 C2.02274935,9.61017605 1.8780008,9.62292593 1.719,9.62292593 C1.50599894,9.62292593 1.31250087,9.5951762 1.1385,9.53967593 C0.96449913,9.48417565 0.816750608,9.40242647 0.69525,9.29442593 C0.573749393,9.18642539 0.48000033,9.05217673 0.414,8.89167593 C0.34799967,8.73117512 0.315,8.54592698 0.315,8.33592593 C0.315,8.1709251 0.35699958,8.0014268 0.441,7.82742593 C0.52500042,7.65342506 0.670498965,7.49517664 0.8775,7.35267593 C1.08450104,7.21017521 1.36349825,7.09092641 1.7145,6.99492593 C2.06550176,6.89892545 2.50799733,6.84492599 3.042,6.83292593 L3.042,6.63492593 C3.042,6.36192456 2.98575056,6.16467653 2.87325,6.04317593 C2.76074944,5.92167532 2.60100104,5.86092593 2.394,5.86092593 C2.22899918,5.86092593 2.09400053,5.87892575 1.989,5.91492593 C1.88399948,5.95092611 1.79025041,5.9914257 1.70775,6.03642593 C1.62524959,6.08142615 1.54500039,6.12192575 1.467,6.15792593 C1.38899961,6.19392611 1.29600054,6.21192593 1.188,6.21192593 C1.09199952,6.21192593 1.01025034,6.18867616 0.94275,6.14217593 C0.875249663,6.09567569 0.822000195,6.03792627 0.783,5.96892593 L0.531,5.53242593 C0.81300141,5.28342468 1.12574828,5.09817653 1.46925,4.97667593 C1.81275172,4.85517532 2.18099804,4.79442593 2.574,4.79442593 C2.85600141,4.79442593 3.11024887,4.84017547 3.33675,4.93167593 C3.56325113,5.02317638 3.75524921,5.15067511 3.91275,5.31417593 C4.07025079,5.47767674 4.19099958,5.6719248 4.275,5.89692593 C4.35900042,6.12192705 4.401,6.36792459 4.401,6.63492593 L4.401,9.55092593 L3.762,9.55092593 Z M2.16,8.70042593 C2.3400009,8.70042593 2.49749933,8.66892624 2.6325,8.60592593 C2.76750068,8.54292561 2.90399931,8.44092663 3.042,8.29992593 L3.042,7.65192593 C2.76299861,7.66392599 2.5335009,7.68792575 2.3535,7.72392593 C2.1734991,7.75992611 2.03100053,7.80492566 1.926,7.85892593 C1.82099948,7.9129262 1.7482502,7.97442558 1.70775,8.04342593 C1.6672498,8.11242627 1.647,8.18742552 1.647,8.26842593 C1.647,8.42742672 1.69049957,8.5391756 1.7775,8.60367593 C1.86450044,8.66817625 1.99199916,8.70042593 2.16,8.70042593 L2.16,8.70042593 Z M5.391,9.55092593 L5.391,4.88442593 L6.219,4.88442593 C6.28800035,4.88442593 6.34574977,4.89042587 6.39225,4.90242593 C6.43875023,4.91442599 6.47774984,4.9331758 6.50925,4.95867593 C6.54075016,4.98417605 6.56474992,5.01792572 6.58125,5.05992593 C6.59775008,5.10192614 6.61199994,5.15292563 6.624,5.21292593 L6.7005,5.64942593 C6.87150086,5.38542461 7.06349894,5.17692669 7.2765,5.02392593 C7.48950107,4.87092516 7.72199874,4.79442593 7.974,4.79442593 C8.18700107,4.79442593 8.35799936,4.84542542 8.487,4.94742593 L8.307,5.97342593 C8.29499994,6.03642624 8.27100018,6.0806758 8.235,6.10617593 C8.19899982,6.13167605 8.1510003,6.14442593 8.091,6.14442593 C8.03999975,6.14442593 7.98000035,6.13767599 7.911,6.12417593 C7.84199966,6.11067586 7.75500053,6.10392593 7.65,6.10392593 C7.28399817,6.10392593 6.99600105,6.29892398 6.786,6.68892593 L6.786,9.55092593 L5.391,9.55092593 Z M12.474,5.99142593 C12.4319998,6.04242618 12.3915002,6.08292578 12.3525,6.11292593 C12.3134998,6.14292608 12.2580004,6.15792593 12.186,6.15792593 C12.1169997,6.15792593 12.0547503,6.14142609 11.99925,6.10842593 C11.9437497,6.07542576 11.8815003,6.03867613 11.8125,5.99817593 C11.7434997,5.95767572 11.6625005,5.92092609 11.5695,5.88792593 C11.4764995,5.85492576 11.3610007,5.83842593 11.223,5.83842593 C11.0519991,5.83842593 10.9042506,5.86992561 10.77975,5.93292593 C10.6552494,5.99592624 10.5525004,6.08592534 10.4715,6.20292593 C10.3904996,6.31992651 10.3305002,6.46317508 10.2915,6.63267593 C10.2524998,6.80217677 10.233,6.99342486 10.233,7.20642593 C10.233,7.65342816 10.3192491,7.99692473 10.49175,8.23692593 C10.6642509,8.47692713 10.9019985,8.59692593 11.205,8.59692593 C11.3670008,8.59692593 11.4952495,8.57667613 11.58975,8.53617593 C11.6842505,8.49567572 11.7644997,8.45067617 11.8305,8.40117593 C11.8965003,8.35167568 11.9572497,8.30592614 12.01275,8.26392593 C12.0682503,8.22192572 12.1379996,8.20092593 12.222,8.20092593 C12.3330006,8.20092593 12.4169997,8.24142552 12.474,8.32242593 L12.879,8.82192593 C12.7349993,8.98692675 12.5835008,9.12117541 12.4245,9.22467593 C12.2654992,9.32817644 12.1027508,9.40917563 11.93625,9.46767593 C11.7697492,9.52617622 11.6025008,9.56667581 11.4345,9.58917593 C11.2664992,9.61167604 11.1030008,9.62292593 10.944,9.62292593 C10.6589986,9.62292593 10.3867513,9.56892647 10.12725,9.46092593 C9.8677487,9.35292539 9.63975098,9.19617695 9.44325,8.99067593 C9.24674902,8.7851749 9.09075058,8.53242743 8.97525,8.23242593 C8.85974942,7.93242443 8.802,7.59042785 8.802,7.20642593 C8.802,6.87042425 8.8522495,6.55617739 8.95275,6.26367593 C9.0532505,5.97117446 9.20174902,5.717677 9.39825,5.50317593 C9.59475098,5.28867485 9.83774855,5.11992654 10.12725,4.99692593 C10.4167514,4.87392531 10.7519981,4.81242593 11.133,4.81242593 C11.4990018,4.81242593 11.8199986,4.87092534 12.096,4.98792593 C12.3720014,5.10492651 12.6209989,5.2759248 12.843,5.50092593 L12.474,5.99142593 Z M15.12,9.62292593 C14.8979989,9.62292593 14.7022508,9.59067625 14.53275,9.52617593 C14.3632492,9.4616756 14.2207506,9.37017652 14.10525,9.25167593 C13.9897494,9.13317533 13.9020003,8.98992677 13.842,8.82192593 C13.7819997,8.65392509 13.752,8.46642696 13.752,8.25942593 L13.752,5.84742593 L13.356,5.84742593 C13.2839996,5.84742593 13.2225003,5.82417616 13.1715,5.77767593 C13.1204997,5.73117569 13.095,5.66292638 13.095,5.57292593 L13.095,5.02842593 L13.8375,4.88442593 L14.112,3.74592593 C14.1480002,3.60192521 14.2499992,3.52992593 14.418,3.52992593 L15.147,3.52992593 L15.147,4.89342593 L16.281,4.89342593 L16.281,5.84742593 L15.147,5.84742593 L15.147,8.16492593 C15.147,8.27292647 15.1732497,8.36217557 15.22575,8.43267593 C15.2782503,8.50317628 15.3539995,8.53842593 15.453,8.53842593 C15.5040003,8.53842593 15.5467498,8.53317598 15.58125,8.52267593 C15.6157502,8.51217587 15.6457499,8.50017599 15.67125,8.48667593 C15.6967501,8.47317586 15.7207499,8.46117598 15.74325,8.45067593 C15.7657501,8.44017587 15.7919999,8.43492593 15.822,8.43492593 C15.8640002,8.43492593 15.8977499,8.44467583 15.92325,8.46417593 C15.9487501,8.48367602 15.9749999,8.51442572 16.002,8.55642593 L16.425,9.21792593 C16.2449991,9.3529266 16.0425011,9.45417559 15.8175,9.52167593 C15.5924989,9.58917626 15.3600012,9.62292593 15.12,9.62292593 L15.12,9.62292593 Z M20.304,9.55092593 C20.1719993,9.55092593 20.0722503,9.53292611 20.00475,9.49692593 C19.9372497,9.46092575 19.8810002,9.3859265 19.836,9.27192593 L19.737,9.01542593 C19.6199994,9.11442642 19.5075005,9.20142555 19.3995,9.27642593 C19.2914995,9.3514263 19.1797506,9.41517566 19.06425,9.46767593 C18.9487494,9.52017619 18.8257507,9.5591758 18.69525,9.58467593 C18.5647493,9.61017605 18.4200008,9.62292593 18.261,9.62292593 C18.0479989,9.62292593 17.8545009,9.5951762 17.6805,9.53967593 C17.5064991,9.48417565 17.3587506,9.40242647 17.23725,9.29442593 C17.1157494,9.18642539 17.0220003,9.05217673 16.956,8.89167593 C16.8899997,8.73117512 16.857,8.54592698 16.857,8.33592593 C16.857,8.1709251 16.8989996,8.0014268 16.983,7.82742593 C17.0670004,7.65342506 17.212499,7.49517664 17.4195,7.35267593 C17.626501,7.21017521 17.9054982,7.09092641 18.2565,6.99492593 C18.6075018,6.89892545 19.0499973,6.84492599 19.584,6.83292593 L19.584,6.63492593 C19.584,6.36192456 19.5277506,6.16467653 19.41525,6.04317593 C19.3027494,5.92167532 19.143001,5.86092593 18.936,5.86092593 C18.7709992,5.86092593 18.6360005,5.87892575 18.531,5.91492593 C18.4259995,5.95092611 18.3322504,5.9914257 18.24975,6.03642593 C18.1672496,6.08142615 18.0870004,6.12192575 18.009,6.15792593 C17.9309996,6.19392611 17.8380005,6.21192593 17.73,6.21192593 C17.6339995,6.21192593 17.5522503,6.18867616 17.48475,6.14217593 C17.4172497,6.09567569 17.3640002,6.03792627 17.325,5.96892593 L17.073,5.53242593 C17.3550014,5.28342468 17.6677483,5.09817653 18.01125,4.97667593 C18.3547517,4.85517532 18.722998,4.79442593 19.116,4.79442593 C19.3980014,4.79442593 19.6522489,4.84017547 19.87875,4.93167593 C20.1052511,5.02317638 20.2972492,5.15067511 20.45475,5.31417593 C20.6122508,5.47767674 20.7329996,5.6719248 20.817,5.89692593 C20.9010004,6.12192705 20.943,6.36792459 20.943,6.63492593 L20.943,9.55092593 L20.304,9.55092593 Z M18.702,8.70042593 C18.8820009,8.70042593 19.0394993,8.66892624 19.1745,8.60592593 C19.3095007,8.54292561 19.4459993,8.44092663 19.584,8.29992593 L19.584,7.65192593 C19.3049986,7.66392599 19.0755009,7.68792575 18.8955,7.72392593 C18.7154991,7.75992611 18.5730005,7.80492566 18.468,7.85892593 C18.3629995,7.9129262 18.2902502,7.97442558 18.24975,8.04342593 C18.2092498,8.11242627 18.189,8.18742552 18.189,8.26842593 C18.189,8.42742672 18.2324996,8.5391756 18.3195,8.60367593 C18.4065004,8.66817625 18.5339992,8.70042593 18.702,8.70042593 L18.702,8.70042593 Z M21.933,9.55092593 L21.933,4.88442593 L22.797,4.88442593 C22.8840004,4.88442593 22.9567497,4.90392573 23.01525,4.94292593 C23.0737503,4.98192612 23.1149999,5.04042554 23.139,5.11842593 L23.22,5.38842593 C23.3100005,5.30442551 23.4029995,5.22642629 23.499,5.15442593 C23.5950005,5.08242557 23.6977495,5.02167617 23.80725,4.97217593 C23.9167505,4.92267568 24.0352494,4.88367607 24.16275,4.85517593 C24.2902506,4.82667578 24.4289993,4.81242593 24.579,4.81242593 C24.8340013,4.81242593 25.059749,4.85667548 25.25625,4.94517593 C25.452751,5.03367637 25.6184993,5.15667514 25.7535,5.31417593 C25.8885007,5.47167671 25.9904997,5.65917484 26.0595,5.87667593 C26.1285003,6.09417701 26.163,6.33042465 26.163,6.58542593 L26.163,9.55092593 L24.768,9.55092593 L24.768,6.58542593 C24.768,6.35742479 24.7155005,6.17967656 24.6105,6.05217593 C24.5054995,5.92467529 24.351001,5.86092593 24.147,5.86092593 C23.9939992,5.86092593 23.8500007,5.8939256 23.715,5.95992593 C23.5799993,6.02592626 23.4510006,6.11442537 23.328,6.22542593 L23.328,9.55092593 L21.933,9.55092593 Z" id="arctan"></path>
                <path d="M30.5,6.12612124 L30.1669922,5.24526186 C29.9235014,4.62221187 29.7910157,4.2856267 29.7695312,4.23549624 L29.2539062,3.08608218 C28.88867,2.26251035 28.5377621,1.85073061 28.2011719,1.85073061 C27.6927058,1.85073061 27.2916681,2.32696283 26.9980469,3.27944155 C26.7832021,3.20066512 26.6757812,3.08608293 26.6757812,2.93569155 C26.6757812,2.49167891 26.9335912,1.98322046 27.4492188,1.41030093 C27.9648463,0.837381395 28.4267558,0.550925926 28.8349609,0.550925926 C29.6370483,0.550925926 30.4677691,1.70390919 31.3271484,4.0099103 L31.5419922,4.57924624 L31.7890625,4.1817853 C33.3144608,1.76120028 34.5999297,0.550925926 35.6455078,0.550925926 C35.9176446,0.550925926 36.2363263,0.62970118 36.6015625,0.787254051 L35.3017578,2.15151186 C35.129882,2.1013814 35.0081384,2.07631655 34.9365234,2.07631655 C34.1487591,2.07631655 33.2106174,2.98223197 32.1220703,4.79408999 L31.8105469,5.30971499 L32.0576172,5.97573061 C33.0029344,8.57535299 33.7799449,9.87514468 34.3886719,9.87514468 C34.9472684,9.87514468 35.3733709,9.47410702 35.6669922,8.67201968 C35.867514,8.80092657 35.9677734,8.93341222 35.9677734,9.06948061 C35.9677734,9.42755532 35.681318,9.85723852 35.1083984,10.3585431 C34.5354789,10.8598477 34.0413432,11.1104962 33.6259766,11.1104962 C32.7952432,11.1104962 31.9466189,9.93960951 31.0800781,7.59780093 L30.7792969,6.80287905 L30.4677734,7.35073061 C29.0068286,9.85725356 27.6103582,11.1104962 26.2783203,11.1104962 C25.7770157,11.1104962 25.3509132,10.985172 25,10.7345197 L26.2460938,9.5099103 C26.4609386,9.72475513 26.7115871,9.83217593 26.9980469,9.83217593 C27.8072957,9.83217593 28.7167918,9.01577784 29.7265625,7.38295718 L30.2851562,6.48061343 L30.5,6.12612124 Z" id="x-copy-9"></path>
            </g>
        </g>
    </g>
</svg>