<?xml version="1.0" encoding="UTF-8" standalone="no"?>
<svg width="30px" height="12px" viewBox="0 0 30 12" version="1.1" xmlns="http://www.w3.org/2000/svg" xmlns:xlink="http://www.w3.org/1999/xlink">
    <!-- Generator: Sketch 39.1 (31720) - http://www.bohemiancoding.com/sketch -->
    <title>node-function-tan-icon</title>
    <desc>Created with Sketch.</desc>
    <defs></defs>
    <g id="Page-1" stroke="none" stroke-width="1" fill="none" fill-rule="evenodd">
        <g id="Desktop-HD" transform="translate(-529.000000, -346.000000)" fill="#FFFFFF">
            <g id="node-function-tan-icon" transform="translate(529.000000, 346.000000)">
                <path d="M2.904,10.6469259 C2.60799852,10.6469259 2.34700113,10.6039264 2.121,10.5179259 C1.89499887,10.4319255 1.70500077,10.3099267 1.551,10.1519259 C1.39699923,9.99392514 1.2800004,9.80292705 1.2,9.57892593 C1.1199996,9.35492481 1.08,9.10492731 1.08,8.82892593 L1.08,5.61292593 L0.552,5.61292593 C0.45599952,5.61292593 0.37400034,5.58192624 0.306,5.51992593 C0.23799966,5.45792562 0.204,5.36692653 0.204,5.24692593 L0.204,4.52092593 L1.194,4.32892593 L1.56,2.81092593 C1.60800024,2.61892497 1.74399888,2.52292593 1.968,2.52292593 L2.94,2.52292593 L2.94,4.34092593 L4.452,4.34092593 L4.452,5.61292593 L2.94,5.61292593 L2.94,8.70292593 C2.94,8.84692665 2.97499965,8.96592546 3.045,9.05992593 C3.11500035,9.1539264 3.21599934,9.20092593 3.348,9.20092593 C3.41600034,9.20092593 3.47299977,9.193926 3.519,9.17992593 C3.56500023,9.16592586 3.60499983,9.14992602 3.639,9.13192593 C3.67300017,9.11392584 3.70499985,9.097926 3.735,9.08392593 C3.76500015,9.06992586 3.7999998,9.06292593 3.84,9.06292593 C3.89600028,9.06292593 3.94099983,9.0759258 3.975,9.10192593 C4.00900017,9.12792606 4.04399982,9.16892565 4.08,9.22492593 L4.644,10.1069259 C4.4039988,10.2869268 4.1340015,10.4219255 3.834,10.5119259 C3.5339985,10.6019264 3.2240016,10.6469259 2.904,10.6469259 L2.904,10.6469259 Z M9.816,10.5509259 C9.63999912,10.5509259 9.50700045,10.5269262 9.417,10.4789259 C9.32699955,10.4309257 9.2520003,10.3309267 9.192,10.1789259 L9.06,9.83692593 C8.90399922,9.96892659 8.75400072,10.0849254 8.61,10.1849259 C8.46599928,10.2849264 8.31700077,10.3699256 8.163,10.4399259 C8.00899923,10.5099263 7.84500087,10.5619258 7.671,10.5959259 C7.49699913,10.6299261 7.30400106,10.6469259 7.092,10.6469259 C6.80799858,10.6469259 6.55000116,10.6099263 6.318,10.5359259 C6.08599884,10.4619256 5.88900081,10.3529266 5.727,10.2089259 C5.56499919,10.0649252 5.44000044,9.885927 5.352,9.67192593 C5.26399956,9.45792486 5.22,9.21092733 5.22,8.93092593 C5.22,8.71092483 5.27599944,8.48492709 5.388,8.25292593 C5.50000056,8.02092477 5.69399862,7.80992688 5.97,7.61992593 C6.24600138,7.42992498 6.61799766,7.27092657 7.086,7.14292593 C7.55400234,7.01492529 8.14399644,6.94292601 8.856,6.92692593 L8.856,6.66292593 C8.856,6.29892411 8.78100075,6.03592674 8.631,5.87392593 C8.48099925,5.71192512 8.26800138,5.63092593 7.992,5.63092593 C7.7719989,5.63092593 7.5920007,5.65492569 7.452,5.70292593 C7.3119993,5.75092617 7.18700055,5.80492563 7.077,5.86492593 C6.96699945,5.92492623 6.86000052,5.97892569 6.756,6.02692593 C6.65199948,6.07492617 6.52800072,6.09892593 6.384,6.09892593 C6.25599936,6.09892593 6.14700045,6.06792624 6.057,6.00592593 C5.96699955,5.94392562 5.89600026,5.86692639 5.844,5.77492593 L5.508,5.19292593 C5.88400188,4.86092427 6.30099771,4.61392674 6.759,4.45192593 C7.21700229,4.28992512 7.70799738,4.20892593 8.232,4.20892593 C8.60800188,4.20892593 8.94699849,4.26992532 9.249,4.39192593 C9.55100151,4.51392654 9.80699895,4.68392484 10.017,4.90192593 C10.227001,5.11992702 10.3879994,5.37892443 10.5,5.67892593 C10.6120006,5.97892743 10.668,6.30692415 10.668,6.66292593 L10.668,10.5509259 L9.816,10.5509259 Z M7.68,9.41692593 C7.9200012,9.41692593 8.1299991,9.37492635 8.31,9.29092593 C8.4900009,9.20692551 8.67199908,9.07092687 8.856,8.88292593 L8.856,8.01892593 C8.48399814,8.03492601 8.1780012,8.06692569 7.938,8.11492593 C7.6979988,8.16292617 7.5080007,8.22292557 7.368,8.29492593 C7.2279993,8.36692629 7.13100027,8.44892547 7.077,8.54092593 C7.02299973,8.63292639 6.996,8.73292539 6.996,8.84092593 C6.996,9.05292699 7.05399942,9.2019255 7.17,9.28792593 C7.28600058,9.37392636 7.45599888,9.41692593 7.68,9.41692593 L7.68,9.41692593 Z M11.988,10.5509259 L11.988,4.32892593 L13.14,4.32892593 C13.2560006,4.32892593 13.3529996,4.35492567 13.431,4.40692593 C13.5090004,4.45892619 13.5639998,4.53692541 13.596,4.64092593 L13.704,5.00092593 C13.8240006,4.88892537 13.9479994,4.78492641 14.076,4.68892593 C14.2040006,4.59292545 14.3409993,4.51192626 14.487,4.44592593 C14.6330007,4.3799256 14.7909991,4.32792612 14.961,4.28992593 C15.1310008,4.25192574 15.315999,4.23292593 15.516,4.23292593 C15.8560017,4.23292593 16.1569987,4.29192534 16.419,4.40992593 C16.6810013,4.52792652 16.9019991,4.69192488 17.082,4.90192593 C17.2620009,5.11192698 17.3979995,5.36192448 17.49,5.65192593 C17.5820005,5.94192738 17.628,6.25692423 17.628,6.59692593 L17.628,10.5509259 L15.768,10.5509259 L15.768,6.59692593 C15.768,6.29292441 15.6980007,6.05592678 15.558,5.88592593 C15.4179993,5.71592508 15.2120014,5.63092593 14.94,5.63092593 C14.735999,5.63092593 14.5440009,5.67492549 14.364,5.76292593 C14.1839991,5.85092637 14.0120008,5.96892519 13.848,6.11692593 L13.848,10.5509259 L11.988,10.5509259 Z" id="tan"></path>
                <path d="M23.5,6.12612124 L23.1669922,5.24526186 C22.9235014,4.62221187 22.7910157,4.2856267 22.7695312,4.23549624 L22.2539062,3.08608218 C21.88867,2.26251035 21.5377621,1.85073061 21.2011719,1.85073061 C20.6927058,1.85073061 20.2916681,2.32696283 19.9980469,3.27944155 C19.7832021,3.20066512 19.6757812,3.08608293 19.6757812,2.93569155 C19.6757812,2.49167891 19.9335912,1.98322046 20.4492188,1.41030093 C20.9648463,0.837381395 21.4267558,0.550925926 21.8349609,0.550925926 C22.6370483,0.550925926 23.4677691,1.70390919 24.3271484,4.0099103 L24.5419922,4.57924624 L24.7890625,4.1817853 C26.3144608,1.76120028 27.5999297,0.550925926 28.6455078,0.550925926 C28.9176446,0.550925926 29.2363263,0.62970118 29.6015625,0.787254051 L28.3017578,2.15151186 C28.129882,2.1013814 28.0081384,2.07631655 27.9365234,2.07631655 C27.1487591,2.07631655 26.2106174,2.98223197 25.1220703,4.79408999 L24.8105469,5.30971499 L25.0576172,5.97573061 C26.0029344,8.57535299 26.7799449,9.87514468 27.3886719,9.87514468 C27.9472684,9.87514468 28.3733709,9.47410702 28.6669922,8.67201968 C28.867514,8.80092657 28.9677734,8.93341222 28.9677734,9.06948061 C28.9677734,9.42755532 28.681318,9.85723852 28.1083984,10.3585431 C27.5354789,10.8598477 27.0413432,11.1104962 26.6259766,11.1104962 C25.7952432,11.1104962 24.9466189,9.93960951 24.0800781,7.59780093 L23.7792969,6.80287905 L23.4677734,7.35073061 C22.0068286,9.85725356 20.6103582,11.1104962 19.2783203,11.1104962 C18.7770157,11.1104962 18.3509132,10.985172 18,10.7345197 L19.2460938,9.5099103 C19.4609386,9.72475513 19.7115871,9.83217593 19.9980469,9.83217593 C20.8072957,9.83217593 21.7167918,9.01577784 22.7265625,7.38295718 L23.2851562,6.48061343 L23.5,6.12612124 Z" id="x-copy-6"></path>
            </g>
        </g>
    </g>
</svg>