<?xml version="1.0" encoding="UTF-8" standalone="no"?>
<svg width="12px" height="9px" viewBox="0 0 12 9" version="1.1" xmlns="http://www.w3.org/2000/svg" xmlns:xlink="http://www.w3.org/1999/xlink">
    <!-- Generator: Sketch 39.1 (31720) - http://www.bohemiancoding.com/sketch -->
    <title>node-function-exp-icon</title>
    <desc>Created with Sketch.</desc>
    <defs></defs>
    <g id="Page-1" stroke="none" stroke-width="1" fill="none" fill-rule="evenodd">
        <g id="Desktop-HD" transform="translate(-540.000000, -227.000000)" fill="#FFFFFF">
            <g id="node-function-exp-icon" transform="translate(540.000000, 227.000000)">
                <path d="M3.384,2.23292593 C3.79600206,2.23292593 4.17299829,2.29692529 4.515,2.42492593 C4.85700171,2.55292657 5.15099877,2.73892471 5.397,2.98292593 C5.64300123,3.22692715 5.83499931,3.52592416 5.973,3.87992593 C6.11100069,4.2339277 6.18,4.63492369 6.18,5.08292593 C6.18,5.22292663 6.17400006,5.33692549 6.162,5.42492593 C6.14999994,5.51292637 6.12800016,5.58292567 6.096,5.63492593 C6.06399984,5.68692619 6.02100027,5.72292583 5.967,5.74292593 C5.91299973,5.76292603 5.84400042,5.77292593 5.76,5.77292593 L2.172,5.77292593 C2.2320003,6.29292853 2.38999872,6.66992476 2.646,6.90392593 C2.90200128,7.1379271 3.23199798,7.25492593 3.636,7.25492593 C3.85200108,7.25492593 4.03799922,7.22892619 4.194,7.17692593 C4.35000078,7.12492567 4.48899939,7.06692625 4.611,7.00292593 C4.73300061,6.93892561 4.84499949,6.88092619 4.947,6.82892593 C5.04900051,6.77692567 5.15599944,6.75092593 5.268,6.75092593 C5.41600074,6.75092593 5.52799962,6.80492539 5.604,6.91292593 L6.144,7.57892593 C5.95199904,7.79892703 5.74500111,7.97792524 5.523,8.11592593 C5.30099889,8.25392662 5.07300117,8.36192554 4.839,8.43992593 C4.60499883,8.51792632 4.37100117,8.57192578 4.137,8.60192593 C3.90299883,8.63192608 3.68000106,8.64692593 3.468,8.64692593 C3.03199782,8.64692593 2.62300191,8.57592664 2.241,8.43392593 C1.85899809,8.29192522 1.52500143,8.08092733 1.239,7.80092593 C0.95299857,7.52092453 0.72700083,7.17292801 0.561,6.75692593 C0.39499917,6.34092385 0.312,5.85692869 0.312,5.30492593 C0.312,4.88892385 0.38299929,4.49492779 0.525,4.12292593 C0.66700071,3.75092407 0.87099867,3.42492733 1.137,3.14492593 C1.40300133,2.86492453 1.72499811,2.64292675 2.103,2.47892593 C2.48100189,2.31492511 2.90799762,2.23292593 3.384,2.23292593 L3.384,2.23292593 Z M3.42,3.51692593 C3.06399822,3.51692593 2.786001,3.61792492 2.586,3.81992593 C2.385999,4.02192694 2.25400032,4.31292403 2.19,4.69292593 L4.512,4.69292593 C4.512,4.54492519 4.49300019,4.40092663 4.455,4.26092593 C4.41699981,4.12092523 4.35500043,3.99592648 4.269,3.88592593 C4.18299957,3.77592538 4.0700007,3.68692627 3.93,3.61892593 C3.7899993,3.55092559 3.620001,3.51692593 3.42,3.51692593 L3.42,3.51692593 Z" id="e"></path>
                <path d="M9.37037037,2.9537037 L9.22685185,2.57407407 C9.12191306,2.30555421 9.06481486,2.16049394 9.05555556,2.13888889 L8.83333333,1.64351852 C8.67592514,1.28857847 8.52469208,1.11111111 8.37962963,1.11111111 C8.16049273,1.11111111 7.98765495,1.31635597 7.86111111,1.72685185 C7.76851806,1.69290106 7.72222222,1.64351884 7.72222222,1.5787037 C7.72222222,1.38734472 7.83333222,1.16821111 8.05555556,0.921296296 C8.27777889,0.674381481 8.47685097,0.550925926 8.65277778,0.550925926 C8.99845852,0.550925926 9.35647963,1.04783454 9.72685185,2.04166667 L9.81944444,2.28703704 L9.92592593,2.11574074 C10.5833366,1.07252565 11.1373434,0.550925926 11.587963,0.550925926 C11.7052475,0.550925926 11.8425918,0.584876204 12,0.652777778 L11.4398148,1.24074074 C11.3657404,1.21913569 11.3132718,1.20833333 11.2824074,1.20833333 C10.9428995,1.20833333 10.5385826,1.59876153 10.0694444,2.37962963 L9.93518519,2.60185185 L10.0416667,2.88888889 C10.4490761,4.00926486 10.7839493,4.56944444 11.0462963,4.56944444 C11.2870382,4.56944444 11.4706784,4.39660667 11.5972222,4.05092593 C11.6836424,4.10648176 11.7268519,4.16357995 11.7268519,4.22222222 C11.7268519,4.37654398 11.6033963,4.56172731 11.3564815,4.77777778 C11.1095667,4.99382824 10.8966058,5.10185185 10.7175926,5.10185185 C10.3595661,5.10185185 9.99382903,4.59722727 9.62037037,3.58796296 L9.49074074,3.24537037 L9.35648148,3.48148148 C8.7268487,4.5617338 8.12500287,5.10185185 7.55092593,5.10185185 C7.33487546,5.10185185 7.15123532,5.04784005 7,4.93981481 L7.53703704,4.41203704 C7.62963009,4.50463009 7.7376537,4.55092593 7.86111111,4.55092593 C8.20987829,4.55092593 8.60184968,4.19907759 9.03703704,3.49537037 L9.27777778,3.10648148 L9.37037037,2.9537037 Z" id="x-copy-10"></path>
            </g>
        </g>
    </g>
</svg>