<?xml version="1.0" encoding="UTF-8" standalone="no"?>
<svg width="31px" height="19px" viewBox="0 0 31 19" version="1.1" xmlns="http://www.w3.org/2000/svg" xmlns:xlink="http://www.w3.org/1999/xlink">
    <!-- Generator: Sketch 39.1 (31720) - http://www.bohemiancoding.com/sketch -->
    <title>node-function-cos-icon</title>
    <desc>Created with Sketch.</desc>
    <defs></defs>
    <g id="Page-1" stroke="none" stroke-width="1" fill="none" fill-rule="evenodd">
        <g id="Desktop-HD" transform="translate(-529.000000, -313.000000)" fill="#FFFFFF">
            <g id="node-function-cos-icon" transform="translate(529.000000, 308.000000)">
                <g id="Group-7-Copy" transform="translate(0.000000, 13.000000)">
                    <path d="M1.54761905,1.9375 L2.04761905,1.9375 L2.04761905,0.9375 L1.54761905,0.9375 L0.547619048,0.9375 L0.0476190476,0.9375 L0.0476190476,1.9375 L0.547619048,1.9375 L1.54761905,1.9375 Z M4.54761905,1.9375 L5.04761905,1.9375 L5.04761905,0.9375 L4.54761905,0.9375 L3.54761905,0.9375 L3.04761905,0.9375 L3.04761905,1.9375 L3.54761905,1.9375 L4.54761905,1.9375 Z M7.54761905,1.9375 L8.04761905,1.9375 L8.04761905,0.9375 L7.54761905,0.9375 L6.54761905,0.9375 L6.04761905,0.9375 L6.04761905,1.9375 L6.54761905,1.9375 L7.54761905,1.9375 Z M10.547619,1.9375 L11.047619,1.9375 L11.047619,0.9375 L10.547619,0.9375 L9.54761905,0.9375 L9.04761905,0.9375 L9.04761905,1.9375 L9.54761905,1.9375 L10.547619,1.9375 Z M13.547619,1.9375 L14.047619,1.9375 L14.047619,0.9375 L13.547619,0.9375 L12.547619,0.9375 L12.047619,0.9375 L12.047619,1.9375 L12.547619,1.9375 L13.547619,1.9375 Z M16.547619,1.9375 L17.047619,1.9375 L17.047619,0.9375 L16.547619,0.9375 L15.547619,0.9375 L15.047619,0.9375 L15.047619,1.9375 L15.547619,1.9375 L16.547619,1.9375 Z M19.547619,1.9375 L20.047619,1.9375 L20.047619,0.9375 L19.547619,0.9375 L18.547619,0.9375 L18.047619,0.9375 L18.047619,1.9375 L18.547619,1.9375 L19.547619,1.9375 Z M22.452381,1.9375 L22.952381,1.9375 L22.952381,0.9375 L22.452381,0.9375 L21.547619,0.9375 L21.047619,0.9375 L21.047619,1.9375 L21.547619,1.9375 L22.452381,1.9375 Z" id="Line"></path>
                </g>
                <path d="M6.02997525,14.5862766 C6.08329004,14.7653811 6.08329004,14.7653811 6.13669128,14.9447678 C6.20501059,15.1740925 6.20501059,15.1740925 6.27360509,15.4034614 C7.93662417,20.9560778 9.09630506,23.1041336 11.4607395,23.1041336 C13.8044655,23.1041336 14.8386984,21.1391896 16.5294065,15.4751303 C16.6084578,15.210118 16.6084578,15.210118 16.6875236,14.9451463 C18.3175804,9.48702193 19.3995677,7.50000008 21.3503492,7.50000006 L21.3503491,6.50000006 C18.7023248,6.50000009 17.5145849,8.68123191 15.7293414,14.6589873 C15.6501354,14.9244289 15.6501354,14.9244289 15.5711849,15.1891034 C14.0448394,20.3025299 13.0965793,22.1041336 11.4607395,22.1041336 C9.79621081,22.1041336 8.73643152,20.1411238 7.23156261,15.1165513 C7.16327679,14.8882147 7.16327679,14.8882147 7.09509916,14.6593658 C7.04175119,14.480158 7.04175119,14.480158 6.98838842,14.3008923 C5.25367167,8.47515002 4.25195772,6.5 2,6.5 L2,7.5 C3.53249576,7.5 4.47084395,9.35020729 6.02997525,14.5862766 Z" id="Path-4-Copy"></path>
                <text id="cos" font-family=".AppleSystemUIFont" font-size="12" font-weight="normal">
                    <tspan x="11" y="12">cos</tspan>
                </text>
            </g>
        </g>
    </g>
</svg>